G04 (created by PCBNEW-RS274X (2011-05-25)-stable) date Fri 31 Oct 2014 00:22:57 EDT*
G01*
G70*
G90*
%MOIN*%
G04 Gerber Fmt 3.4, Leading zero omitted, Abs format*
%FSLAX34Y34*%
G04 APERTURE LIST*
%ADD10C,0.006000*%
%ADD11R,0.060000X0.060000*%
%ADD12C,0.060000*%
%ADD13C,0.055000*%
%ADD14R,0.055000X0.055000*%
%ADD15C,0.035000*%
%ADD16C,0.008000*%
%ADD17C,0.010000*%
G04 APERTURE END LIST*
G54D10*
G54D11*
X56500Y-58000D03*
G54D12*
X55500Y-58000D03*
X54500Y-58000D03*
X53500Y-58000D03*
X52500Y-58000D03*
X51500Y-58000D03*
X50500Y-58000D03*
X49500Y-58000D03*
G54D11*
X39000Y-58000D03*
G54D12*
X40000Y-58000D03*
X41000Y-58000D03*
X42000Y-58000D03*
X43000Y-58000D03*
X44000Y-58000D03*
X45000Y-58000D03*
X46000Y-58000D03*
X47000Y-58000D03*
X48000Y-58000D03*
G54D13*
X50000Y-51500D03*
X50000Y-48500D03*
X51000Y-51500D03*
X51000Y-48500D03*
X46000Y-53500D03*
X46000Y-56500D03*
X44000Y-53500D03*
X44000Y-56500D03*
X41000Y-53500D03*
X41000Y-56500D03*
X40000Y-53500D03*
X40000Y-56500D03*
X39000Y-53500D03*
X39000Y-56500D03*
X52000Y-51500D03*
X52000Y-48500D03*
X54000Y-48500D03*
X54000Y-51500D03*
X53000Y-48500D03*
X53000Y-51500D03*
X48000Y-53500D03*
X48000Y-56500D03*
X47000Y-53500D03*
X47000Y-56500D03*
X45000Y-53500D03*
X45000Y-56500D03*
X42000Y-53500D03*
X42000Y-56500D03*
X43000Y-53500D03*
X43000Y-56500D03*
G54D11*
X39000Y-46500D03*
G54D12*
X39000Y-45500D03*
X44000Y-46500D03*
X40000Y-45500D03*
X45000Y-46500D03*
X41000Y-45500D03*
X46000Y-46500D03*
X42000Y-45500D03*
X47000Y-46500D03*
X43000Y-45500D03*
X48000Y-46500D03*
X44000Y-45500D03*
X49000Y-46500D03*
X45000Y-45500D03*
X50000Y-46500D03*
X46000Y-45500D03*
X51000Y-46500D03*
X47000Y-45500D03*
X52000Y-46500D03*
X48000Y-45500D03*
X53000Y-46500D03*
X49000Y-45500D03*
X54000Y-46500D03*
X50000Y-45500D03*
X51000Y-45500D03*
X55000Y-46500D03*
X52000Y-45500D03*
X54000Y-45500D03*
X55000Y-45500D03*
X56000Y-45500D03*
X57000Y-45500D03*
X56000Y-46500D03*
X57000Y-46500D03*
X40000Y-46500D03*
X41000Y-46500D03*
X42000Y-46500D03*
X43000Y-46500D03*
X58000Y-46500D03*
X58000Y-45500D03*
X53000Y-45500D03*
G54D11*
X56000Y-53500D03*
G54D12*
X55000Y-53500D03*
X54000Y-53500D03*
X53000Y-53500D03*
X52000Y-53500D03*
X51000Y-53500D03*
X50000Y-53500D03*
X50000Y-56500D03*
X51000Y-56500D03*
X52000Y-56500D03*
X53000Y-56500D03*
X54000Y-56500D03*
X55000Y-56500D03*
X56000Y-56500D03*
G54D11*
X39000Y-60000D03*
G54D12*
X40000Y-60000D03*
X41000Y-60000D03*
X42000Y-60000D03*
G54D14*
X56000Y-52000D03*
G54D13*
X56000Y-51000D03*
X56000Y-50000D03*
X56000Y-49000D03*
X56000Y-48000D03*
G54D14*
X58000Y-52000D03*
G54D13*
X58000Y-51000D03*
X58000Y-50000D03*
X58000Y-49000D03*
X58000Y-48000D03*
G54D11*
X45000Y-60000D03*
G54D12*
X46000Y-60000D03*
X47000Y-60000D03*
X48000Y-60000D03*
G54D14*
X39000Y-52000D03*
G54D13*
X39000Y-49000D03*
G54D14*
X40000Y-52000D03*
G54D13*
X40000Y-49000D03*
G54D14*
X41000Y-52000D03*
G54D13*
X41000Y-49000D03*
G54D14*
X44000Y-52000D03*
G54D13*
X44000Y-49000D03*
G54D14*
X46000Y-52000D03*
G54D13*
X46000Y-49000D03*
G54D14*
X48000Y-52000D03*
G54D13*
X48000Y-49000D03*
G54D14*
X47000Y-52000D03*
G54D13*
X47000Y-49000D03*
G54D14*
X45000Y-52000D03*
G54D13*
X45000Y-49000D03*
G54D14*
X42000Y-52000D03*
G54D13*
X42000Y-49000D03*
G54D14*
X43000Y-52000D03*
G54D13*
X43000Y-49000D03*
G54D15*
X54000Y-55500D03*
X52500Y-55500D03*
G54D16*
X56000Y-49000D02*
X55500Y-48500D01*
X54500Y-46000D02*
X54000Y-45500D01*
X54500Y-47000D02*
X54500Y-46000D01*
X55500Y-48000D02*
X54500Y-47000D01*
X55500Y-48500D02*
X55500Y-48000D01*
X55000Y-46500D02*
X56000Y-47500D01*
X56000Y-47500D02*
X56000Y-48000D01*
X42000Y-52000D02*
X42000Y-53500D01*
X43000Y-52000D02*
X43000Y-53500D01*
X44000Y-52000D02*
X44000Y-53500D01*
X45000Y-52000D02*
X45000Y-53500D01*
X39000Y-52000D02*
X39000Y-53500D01*
X57000Y-45500D02*
X57500Y-46000D01*
X57500Y-48500D02*
X58000Y-49000D01*
X57500Y-46000D02*
X57500Y-48500D01*
X58000Y-45500D02*
X58500Y-46000D01*
X58500Y-47500D02*
X58000Y-48000D01*
X58500Y-46000D02*
X58500Y-47500D01*
X47000Y-52000D02*
X47000Y-53500D01*
X48000Y-52000D02*
X48000Y-53500D01*
X49000Y-45500D02*
X48500Y-46000D01*
X54000Y-50000D02*
X56000Y-52000D01*
X50500Y-50000D02*
X54000Y-50000D01*
X48500Y-48000D02*
X50500Y-50000D01*
X48500Y-46000D02*
X48500Y-48000D01*
X46000Y-52000D02*
X46000Y-53500D01*
X40000Y-52000D02*
X40000Y-53500D01*
X41000Y-52000D02*
X41000Y-53500D01*
X53000Y-46500D02*
X53500Y-47000D01*
X54500Y-49500D02*
X56000Y-51000D01*
X54500Y-48000D02*
X54500Y-49500D01*
X53500Y-47000D02*
X54500Y-48000D01*
X56000Y-50000D02*
X55000Y-49000D01*
X54000Y-47000D02*
X54000Y-46500D01*
X55000Y-48000D02*
X54000Y-47000D01*
X55000Y-49000D02*
X55000Y-48000D01*
X42000Y-58000D02*
X42000Y-56500D01*
X43000Y-58000D02*
X43000Y-56500D01*
X44000Y-58000D02*
X44000Y-56500D01*
X45000Y-58000D02*
X45000Y-56500D01*
X39000Y-58000D02*
X39000Y-56500D01*
X47000Y-58000D02*
X47000Y-56500D01*
X48000Y-58000D02*
X48000Y-56500D01*
X46000Y-58000D02*
X46000Y-56500D01*
X40000Y-56500D02*
X40000Y-58000D01*
X41000Y-58000D02*
X41000Y-56500D01*
X55000Y-56500D02*
X56500Y-58000D01*
X54000Y-56500D02*
X55500Y-58000D01*
X53000Y-56500D02*
X54500Y-58000D01*
X52000Y-56500D02*
X53500Y-58000D01*
X55000Y-53500D02*
X55000Y-54500D01*
X55000Y-54500D02*
X54000Y-55500D01*
X54000Y-53500D02*
X54000Y-54000D01*
X54000Y-54000D02*
X52500Y-55500D01*
X52000Y-53500D02*
X52000Y-55500D01*
X51500Y-57000D02*
X50500Y-58000D01*
X51500Y-56000D02*
X51500Y-57000D01*
X52000Y-55500D02*
X51500Y-56000D01*
X42000Y-60000D02*
X41000Y-60000D01*
X49000Y-46500D02*
X49000Y-47500D01*
X49000Y-47500D02*
X50000Y-48500D01*
X50000Y-51500D02*
X50000Y-52500D01*
X49500Y-56000D02*
X50000Y-56500D01*
X49500Y-53000D02*
X49500Y-56000D01*
X50000Y-52500D02*
X49500Y-53000D01*
X54000Y-51500D02*
X53000Y-52500D01*
X52000Y-52500D02*
X51000Y-53500D01*
X53000Y-52500D02*
X52000Y-52500D01*
X50000Y-46500D02*
X50000Y-47500D01*
X50000Y-47500D02*
X51000Y-48500D01*
X51000Y-51500D02*
X51000Y-52500D01*
X50500Y-56000D02*
X51000Y-56500D01*
X50500Y-53000D02*
X50500Y-56000D01*
X51000Y-52500D02*
X50500Y-53000D01*
X50000Y-45500D02*
X50500Y-46000D01*
X52000Y-47500D02*
X53000Y-48500D01*
X51000Y-47500D02*
X52000Y-47500D01*
X50500Y-47000D02*
X51000Y-47500D01*
X50500Y-46000D02*
X50500Y-47000D01*
X39000Y-60000D02*
X38000Y-59000D01*
X38000Y-47500D02*
X39000Y-46500D01*
X38000Y-59000D02*
X38000Y-47500D01*
X39000Y-60000D02*
X40000Y-60000D01*
G54D10*
G36*
X59450Y-60950D02*
X58790Y-60950D01*
X58790Y-47500D01*
X58790Y-46000D01*
X58768Y-45889D01*
X58705Y-45795D01*
X58540Y-45630D01*
X58549Y-45609D01*
X58549Y-45391D01*
X58465Y-45189D01*
X58311Y-45035D01*
X58109Y-44951D01*
X57891Y-44951D01*
X57689Y-45035D01*
X57535Y-45189D01*
X57500Y-45273D01*
X57465Y-45189D01*
X57311Y-45035D01*
X57109Y-44951D01*
X56891Y-44951D01*
X56689Y-45035D01*
X56535Y-45189D01*
X56500Y-45273D01*
X56465Y-45189D01*
X56311Y-45035D01*
X56109Y-44951D01*
X55891Y-44951D01*
X55689Y-45035D01*
X55535Y-45189D01*
X55500Y-45273D01*
X55465Y-45189D01*
X55311Y-45035D01*
X55109Y-44951D01*
X54891Y-44951D01*
X54689Y-45035D01*
X54535Y-45189D01*
X54500Y-45273D01*
X54465Y-45189D01*
X54311Y-45035D01*
X54109Y-44951D01*
X53891Y-44951D01*
X53689Y-45035D01*
X53535Y-45189D01*
X53497Y-45280D01*
X53472Y-45219D01*
X53378Y-45192D01*
X53308Y-45262D01*
X53308Y-45122D01*
X53281Y-45028D01*
X53079Y-44957D01*
X52866Y-44968D01*
X52719Y-45028D01*
X52692Y-45122D01*
X53000Y-45429D01*
X53308Y-45122D01*
X53308Y-45262D01*
X53071Y-45500D01*
X53378Y-45808D01*
X53472Y-45781D01*
X53495Y-45715D01*
X53535Y-45811D01*
X53689Y-45965D01*
X53773Y-46000D01*
X53689Y-46035D01*
X53535Y-46189D01*
X53500Y-46273D01*
X53465Y-46189D01*
X53311Y-46035D01*
X53219Y-45997D01*
X53281Y-45972D01*
X53308Y-45878D01*
X53000Y-45571D01*
X52692Y-45878D01*
X52719Y-45972D01*
X52784Y-45995D01*
X52689Y-46035D01*
X52535Y-46189D01*
X52500Y-46273D01*
X52465Y-46189D01*
X52311Y-46035D01*
X52226Y-46000D01*
X52311Y-45965D01*
X52465Y-45811D01*
X52502Y-45719D01*
X52528Y-45781D01*
X52622Y-45808D01*
X52929Y-45500D01*
X52622Y-45192D01*
X52528Y-45219D01*
X52504Y-45284D01*
X52465Y-45189D01*
X52311Y-45035D01*
X52109Y-44951D01*
X51891Y-44951D01*
X51689Y-45035D01*
X51535Y-45189D01*
X51500Y-45273D01*
X51465Y-45189D01*
X51311Y-45035D01*
X51109Y-44951D01*
X50891Y-44951D01*
X50689Y-45035D01*
X50535Y-45189D01*
X50500Y-45273D01*
X50465Y-45189D01*
X50311Y-45035D01*
X50109Y-44951D01*
X49891Y-44951D01*
X49689Y-45035D01*
X49535Y-45189D01*
X49500Y-45273D01*
X49465Y-45189D01*
X49311Y-45035D01*
X49109Y-44951D01*
X48891Y-44951D01*
X48689Y-45035D01*
X48535Y-45189D01*
X48500Y-45273D01*
X48465Y-45189D01*
X48311Y-45035D01*
X48109Y-44951D01*
X47891Y-44951D01*
X47689Y-45035D01*
X47535Y-45189D01*
X47500Y-45273D01*
X47465Y-45189D01*
X47311Y-45035D01*
X47109Y-44951D01*
X46891Y-44951D01*
X46689Y-45035D01*
X46535Y-45189D01*
X46500Y-45273D01*
X46465Y-45189D01*
X46311Y-45035D01*
X46109Y-44951D01*
X45891Y-44951D01*
X45689Y-45035D01*
X45535Y-45189D01*
X45500Y-45273D01*
X45465Y-45189D01*
X45311Y-45035D01*
X45109Y-44951D01*
X44891Y-44951D01*
X44689Y-45035D01*
X44535Y-45189D01*
X44500Y-45273D01*
X44465Y-45189D01*
X44311Y-45035D01*
X44109Y-44951D01*
X43891Y-44951D01*
X43689Y-45035D01*
X43535Y-45189D01*
X43500Y-45273D01*
X43465Y-45189D01*
X43311Y-45035D01*
X43109Y-44951D01*
X42891Y-44951D01*
X42689Y-45035D01*
X42535Y-45189D01*
X42500Y-45273D01*
X42465Y-45189D01*
X42311Y-45035D01*
X42109Y-44951D01*
X41891Y-44951D01*
X41689Y-45035D01*
X41535Y-45189D01*
X41497Y-45280D01*
X41472Y-45219D01*
X41378Y-45192D01*
X41308Y-45262D01*
X41308Y-45122D01*
X41281Y-45028D01*
X41079Y-44957D01*
X40866Y-44968D01*
X40719Y-45028D01*
X40692Y-45122D01*
X41000Y-45429D01*
X41308Y-45122D01*
X41308Y-45262D01*
X41071Y-45500D01*
X41378Y-45808D01*
X41472Y-45781D01*
X41495Y-45715D01*
X41535Y-45811D01*
X41689Y-45965D01*
X41773Y-46000D01*
X41689Y-46035D01*
X41535Y-46189D01*
X41500Y-46273D01*
X41465Y-46189D01*
X41311Y-46035D01*
X41219Y-45997D01*
X41281Y-45972D01*
X41308Y-45878D01*
X41000Y-45571D01*
X40929Y-45641D01*
X40929Y-45500D01*
X40622Y-45192D01*
X40528Y-45219D01*
X40502Y-45292D01*
X40472Y-45219D01*
X40378Y-45192D01*
X40308Y-45262D01*
X40308Y-45122D01*
X40281Y-45028D01*
X40079Y-44957D01*
X39866Y-44968D01*
X39719Y-45028D01*
X39692Y-45122D01*
X40000Y-45429D01*
X40308Y-45122D01*
X40308Y-45262D01*
X40071Y-45500D01*
X40378Y-45808D01*
X40472Y-45781D01*
X40497Y-45707D01*
X40528Y-45781D01*
X40622Y-45808D01*
X40929Y-45500D01*
X40929Y-45641D01*
X40692Y-45878D01*
X40719Y-45972D01*
X40784Y-45995D01*
X40689Y-46035D01*
X40535Y-46189D01*
X40500Y-46273D01*
X40465Y-46189D01*
X40311Y-46035D01*
X40219Y-45997D01*
X40281Y-45972D01*
X40308Y-45878D01*
X40000Y-45571D01*
X39692Y-45878D01*
X39719Y-45972D01*
X39784Y-45995D01*
X39689Y-46035D01*
X39549Y-46175D01*
X39549Y-46151D01*
X39511Y-46059D01*
X39441Y-45989D01*
X39350Y-45951D01*
X39325Y-45951D01*
X39465Y-45811D01*
X39502Y-45719D01*
X39528Y-45781D01*
X39622Y-45808D01*
X39929Y-45500D01*
X39622Y-45192D01*
X39528Y-45219D01*
X39504Y-45284D01*
X39465Y-45189D01*
X39311Y-45035D01*
X39109Y-44951D01*
X38891Y-44951D01*
X38689Y-45035D01*
X38535Y-45189D01*
X38451Y-45391D01*
X38451Y-45609D01*
X38535Y-45811D01*
X38675Y-45951D01*
X38651Y-45951D01*
X38559Y-45989D01*
X38489Y-46059D01*
X38451Y-46150D01*
X38451Y-46249D01*
X38451Y-46639D01*
X37795Y-47295D01*
X37732Y-47389D01*
X37710Y-47500D01*
X37710Y-59000D01*
X37732Y-59111D01*
X37795Y-59205D01*
X38451Y-59861D01*
X38451Y-60349D01*
X38489Y-60441D01*
X38559Y-60511D01*
X38650Y-60549D01*
X38749Y-60549D01*
X39349Y-60549D01*
X39441Y-60511D01*
X39511Y-60441D01*
X39549Y-60350D01*
X39549Y-60325D01*
X39689Y-60465D01*
X39891Y-60549D01*
X40109Y-60549D01*
X40311Y-60465D01*
X40465Y-60311D01*
X40502Y-60219D01*
X40528Y-60281D01*
X40622Y-60308D01*
X40929Y-60000D01*
X40622Y-59692D01*
X40528Y-59719D01*
X40504Y-59784D01*
X40465Y-59689D01*
X40311Y-59535D01*
X40109Y-59451D01*
X39891Y-59451D01*
X39689Y-59535D01*
X39549Y-59675D01*
X39549Y-59651D01*
X39511Y-59559D01*
X39441Y-59489D01*
X39350Y-59451D01*
X39251Y-59451D01*
X38861Y-59451D01*
X38290Y-58880D01*
X38290Y-47620D01*
X38861Y-47049D01*
X39349Y-47049D01*
X39441Y-47011D01*
X39511Y-46941D01*
X39549Y-46850D01*
X39549Y-46825D01*
X39689Y-46965D01*
X39891Y-47049D01*
X40109Y-47049D01*
X40311Y-46965D01*
X40465Y-46811D01*
X40500Y-46726D01*
X40535Y-46811D01*
X40689Y-46965D01*
X40891Y-47049D01*
X41109Y-47049D01*
X41311Y-46965D01*
X41465Y-46811D01*
X41500Y-46726D01*
X41535Y-46811D01*
X41689Y-46965D01*
X41891Y-47049D01*
X42109Y-47049D01*
X42311Y-46965D01*
X42465Y-46811D01*
X42500Y-46726D01*
X42535Y-46811D01*
X42689Y-46965D01*
X42891Y-47049D01*
X43109Y-47049D01*
X43311Y-46965D01*
X43465Y-46811D01*
X43500Y-46726D01*
X43535Y-46811D01*
X43689Y-46965D01*
X43891Y-47049D01*
X44109Y-47049D01*
X44311Y-46965D01*
X44465Y-46811D01*
X44500Y-46726D01*
X44535Y-46811D01*
X44689Y-46965D01*
X44891Y-47049D01*
X45109Y-47049D01*
X45311Y-46965D01*
X45465Y-46811D01*
X45500Y-46726D01*
X45535Y-46811D01*
X45689Y-46965D01*
X45891Y-47049D01*
X46109Y-47049D01*
X46311Y-46965D01*
X46465Y-46811D01*
X46500Y-46726D01*
X46535Y-46811D01*
X46689Y-46965D01*
X46891Y-47049D01*
X47109Y-47049D01*
X47311Y-46965D01*
X47465Y-46811D01*
X47500Y-46726D01*
X47535Y-46811D01*
X47689Y-46965D01*
X47891Y-47049D01*
X48109Y-47049D01*
X48210Y-47007D01*
X48210Y-48000D01*
X48232Y-48111D01*
X48295Y-48205D01*
X50295Y-50205D01*
X50389Y-50268D01*
X50500Y-50290D01*
X53880Y-50290D01*
X55476Y-51886D01*
X55476Y-52324D01*
X55514Y-52416D01*
X55584Y-52486D01*
X55675Y-52524D01*
X55774Y-52524D01*
X56324Y-52524D01*
X56416Y-52486D01*
X56486Y-52416D01*
X56524Y-52325D01*
X56524Y-52226D01*
X56524Y-51676D01*
X56486Y-51584D01*
X56416Y-51514D01*
X56325Y-51476D01*
X56226Y-51476D01*
X56222Y-51476D01*
X56297Y-51445D01*
X56445Y-51298D01*
X56525Y-51105D01*
X56525Y-50896D01*
X56445Y-50703D01*
X56298Y-50555D01*
X56164Y-50499D01*
X56297Y-50445D01*
X56445Y-50298D01*
X56525Y-50105D01*
X56525Y-49896D01*
X56445Y-49703D01*
X56298Y-49555D01*
X56164Y-49499D01*
X56297Y-49445D01*
X56445Y-49298D01*
X56525Y-49105D01*
X56525Y-48896D01*
X56445Y-48703D01*
X56298Y-48555D01*
X56164Y-48499D01*
X56297Y-48445D01*
X56445Y-48298D01*
X56525Y-48105D01*
X56525Y-47896D01*
X56445Y-47703D01*
X56298Y-47555D01*
X56290Y-47551D01*
X56290Y-47500D01*
X56268Y-47389D01*
X56205Y-47295D01*
X55959Y-47049D01*
X56109Y-47049D01*
X56311Y-46965D01*
X56465Y-46811D01*
X56500Y-46726D01*
X56535Y-46811D01*
X56689Y-46965D01*
X56891Y-47049D01*
X57109Y-47049D01*
X57210Y-47007D01*
X57210Y-48500D01*
X57232Y-48611D01*
X57295Y-48705D01*
X57477Y-48887D01*
X57475Y-48895D01*
X57475Y-49104D01*
X57555Y-49297D01*
X57702Y-49445D01*
X57835Y-49500D01*
X57703Y-49555D01*
X57555Y-49702D01*
X57475Y-49895D01*
X57475Y-50104D01*
X57555Y-50297D01*
X57702Y-50445D01*
X57835Y-50500D01*
X57703Y-50555D01*
X57555Y-50702D01*
X57475Y-50895D01*
X57475Y-51104D01*
X57555Y-51297D01*
X57702Y-51445D01*
X57776Y-51476D01*
X57676Y-51476D01*
X57584Y-51514D01*
X57514Y-51584D01*
X57476Y-51675D01*
X57476Y-51774D01*
X57476Y-52324D01*
X57514Y-52416D01*
X57584Y-52486D01*
X57675Y-52524D01*
X57774Y-52524D01*
X58324Y-52524D01*
X58416Y-52486D01*
X58486Y-52416D01*
X58524Y-52325D01*
X58524Y-52226D01*
X58524Y-51676D01*
X58486Y-51584D01*
X58416Y-51514D01*
X58325Y-51476D01*
X58226Y-51476D01*
X58222Y-51476D01*
X58297Y-51445D01*
X58445Y-51298D01*
X58525Y-51105D01*
X58525Y-50896D01*
X58445Y-50703D01*
X58298Y-50555D01*
X58164Y-50499D01*
X58297Y-50445D01*
X58445Y-50298D01*
X58525Y-50105D01*
X58525Y-49896D01*
X58445Y-49703D01*
X58298Y-49555D01*
X58164Y-49499D01*
X58297Y-49445D01*
X58445Y-49298D01*
X58525Y-49105D01*
X58525Y-48896D01*
X58445Y-48703D01*
X58298Y-48555D01*
X58164Y-48499D01*
X58297Y-48445D01*
X58445Y-48298D01*
X58525Y-48105D01*
X58525Y-47896D01*
X58521Y-47888D01*
X58705Y-47705D01*
X58768Y-47611D01*
X58790Y-47500D01*
X58790Y-60950D01*
X57049Y-60950D01*
X57049Y-58350D01*
X57049Y-58251D01*
X57049Y-57651D01*
X57011Y-57559D01*
X56941Y-57489D01*
X56850Y-57451D01*
X56751Y-57451D01*
X56543Y-57451D01*
X56543Y-56579D01*
X56532Y-56366D01*
X56472Y-56219D01*
X56378Y-56192D01*
X56308Y-56262D01*
X56308Y-56122D01*
X56281Y-56028D01*
X56079Y-55957D01*
X55866Y-55968D01*
X55719Y-56028D01*
X55692Y-56122D01*
X56000Y-56429D01*
X56308Y-56122D01*
X56308Y-56262D01*
X56071Y-56500D01*
X56378Y-56808D01*
X56472Y-56781D01*
X56543Y-56579D01*
X56543Y-57451D01*
X56361Y-57451D01*
X55951Y-57041D01*
X56134Y-57032D01*
X56281Y-56972D01*
X56308Y-56878D01*
X56035Y-56606D01*
X56000Y-56571D01*
X55929Y-56500D01*
X55894Y-56465D01*
X55622Y-56192D01*
X55528Y-56219D01*
X55504Y-56284D01*
X55465Y-56189D01*
X55311Y-56035D01*
X55109Y-55951D01*
X54891Y-55951D01*
X54689Y-56035D01*
X54535Y-56189D01*
X54500Y-56273D01*
X54465Y-56189D01*
X54311Y-56035D01*
X54109Y-55951D01*
X53891Y-55951D01*
X53689Y-56035D01*
X53535Y-56189D01*
X53500Y-56273D01*
X53465Y-56189D01*
X53311Y-56035D01*
X53109Y-55951D01*
X52891Y-55951D01*
X52689Y-56035D01*
X52535Y-56189D01*
X52500Y-56273D01*
X52465Y-56189D01*
X52311Y-56035D01*
X52109Y-55951D01*
X51959Y-55951D01*
X52154Y-55755D01*
X52259Y-55860D01*
X52415Y-55925D01*
X52584Y-55925D01*
X52740Y-55861D01*
X52860Y-55741D01*
X52925Y-55585D01*
X52925Y-55485D01*
X54205Y-54205D01*
X54268Y-54111D01*
X54290Y-54000D01*
X54290Y-53973D01*
X54311Y-53965D01*
X54465Y-53811D01*
X54500Y-53726D01*
X54535Y-53811D01*
X54689Y-53965D01*
X54710Y-53973D01*
X54710Y-54380D01*
X54015Y-55075D01*
X53916Y-55075D01*
X53760Y-55139D01*
X53640Y-55259D01*
X53575Y-55415D01*
X53575Y-55584D01*
X53639Y-55740D01*
X53759Y-55860D01*
X53915Y-55925D01*
X54084Y-55925D01*
X54240Y-55861D01*
X54360Y-55741D01*
X54425Y-55585D01*
X54425Y-55485D01*
X55205Y-54705D01*
X55268Y-54611D01*
X55290Y-54500D01*
X55290Y-53973D01*
X55311Y-53965D01*
X55451Y-53825D01*
X55451Y-53849D01*
X55489Y-53941D01*
X55559Y-54011D01*
X55650Y-54049D01*
X55749Y-54049D01*
X56349Y-54049D01*
X56441Y-54011D01*
X56511Y-53941D01*
X56549Y-53850D01*
X56549Y-53751D01*
X56549Y-53151D01*
X56511Y-53059D01*
X56441Y-52989D01*
X56350Y-52951D01*
X56251Y-52951D01*
X55651Y-52951D01*
X55559Y-52989D01*
X55489Y-53059D01*
X55451Y-53150D01*
X55451Y-53175D01*
X55311Y-53035D01*
X55109Y-52951D01*
X54891Y-52951D01*
X54689Y-53035D01*
X54535Y-53189D01*
X54500Y-53273D01*
X54465Y-53189D01*
X54311Y-53035D01*
X54109Y-52951D01*
X53891Y-52951D01*
X53689Y-53035D01*
X53535Y-53189D01*
X53500Y-53273D01*
X53465Y-53189D01*
X53311Y-53035D01*
X53109Y-52951D01*
X52891Y-52951D01*
X52689Y-53035D01*
X52535Y-53189D01*
X52500Y-53273D01*
X52465Y-53189D01*
X52311Y-53035D01*
X52109Y-52951D01*
X51959Y-52951D01*
X52120Y-52790D01*
X53000Y-52790D01*
X53111Y-52768D01*
X53205Y-52705D01*
X53887Y-52022D01*
X53895Y-52025D01*
X54104Y-52025D01*
X54297Y-51945D01*
X54445Y-51798D01*
X54525Y-51605D01*
X54525Y-51396D01*
X54445Y-51203D01*
X54298Y-51055D01*
X54105Y-50975D01*
X53896Y-50975D01*
X53703Y-51055D01*
X53555Y-51202D01*
X53499Y-51335D01*
X53445Y-51203D01*
X53298Y-51055D01*
X53105Y-50975D01*
X52896Y-50975D01*
X52703Y-51055D01*
X52555Y-51202D01*
X52499Y-51335D01*
X52445Y-51203D01*
X52298Y-51055D01*
X52105Y-50975D01*
X51896Y-50975D01*
X51703Y-51055D01*
X51555Y-51202D01*
X51499Y-51335D01*
X51445Y-51203D01*
X51298Y-51055D01*
X51105Y-50975D01*
X50896Y-50975D01*
X50703Y-51055D01*
X50555Y-51202D01*
X50499Y-51335D01*
X50445Y-51203D01*
X50298Y-51055D01*
X50105Y-50975D01*
X49896Y-50975D01*
X49703Y-51055D01*
X49555Y-51202D01*
X49475Y-51395D01*
X49475Y-51604D01*
X49555Y-51797D01*
X49702Y-51945D01*
X49710Y-51948D01*
X49710Y-52380D01*
X49295Y-52795D01*
X49232Y-52889D01*
X49210Y-53000D01*
X49210Y-56000D01*
X49232Y-56111D01*
X49295Y-56205D01*
X49459Y-56369D01*
X49451Y-56391D01*
X49451Y-56609D01*
X49535Y-56811D01*
X49689Y-56965D01*
X49891Y-57049D01*
X50109Y-57049D01*
X50311Y-56965D01*
X50465Y-56811D01*
X50500Y-56726D01*
X50535Y-56811D01*
X50689Y-56965D01*
X50891Y-57049D01*
X51041Y-57049D01*
X50630Y-57459D01*
X50609Y-57451D01*
X50391Y-57451D01*
X50189Y-57535D01*
X50035Y-57689D01*
X50000Y-57773D01*
X49965Y-57689D01*
X49811Y-57535D01*
X49609Y-57451D01*
X49391Y-57451D01*
X49189Y-57535D01*
X49035Y-57689D01*
X48951Y-57891D01*
X48951Y-58109D01*
X49035Y-58311D01*
X49189Y-58465D01*
X49391Y-58549D01*
X49609Y-58549D01*
X49811Y-58465D01*
X49965Y-58311D01*
X50000Y-58226D01*
X50035Y-58311D01*
X50189Y-58465D01*
X50391Y-58549D01*
X50609Y-58549D01*
X50811Y-58465D01*
X50965Y-58311D01*
X51000Y-58226D01*
X51035Y-58311D01*
X51189Y-58465D01*
X51391Y-58549D01*
X51609Y-58549D01*
X51811Y-58465D01*
X51965Y-58311D01*
X52000Y-58226D01*
X52035Y-58311D01*
X52189Y-58465D01*
X52391Y-58549D01*
X52609Y-58549D01*
X52811Y-58465D01*
X52965Y-58311D01*
X53000Y-58226D01*
X53035Y-58311D01*
X53189Y-58465D01*
X53391Y-58549D01*
X53609Y-58549D01*
X53811Y-58465D01*
X53965Y-58311D01*
X54000Y-58226D01*
X54035Y-58311D01*
X54189Y-58465D01*
X54391Y-58549D01*
X54609Y-58549D01*
X54811Y-58465D01*
X54965Y-58311D01*
X55000Y-58226D01*
X55035Y-58311D01*
X55189Y-58465D01*
X55391Y-58549D01*
X55609Y-58549D01*
X55811Y-58465D01*
X55951Y-58325D01*
X55951Y-58349D01*
X55989Y-58441D01*
X56059Y-58511D01*
X56150Y-58549D01*
X56249Y-58549D01*
X56849Y-58549D01*
X56941Y-58511D01*
X57011Y-58441D01*
X57049Y-58350D01*
X57049Y-60950D01*
X48549Y-60950D01*
X48549Y-58109D01*
X48549Y-57891D01*
X48465Y-57689D01*
X48311Y-57535D01*
X48290Y-57526D01*
X48290Y-56947D01*
X48297Y-56945D01*
X48445Y-56798D01*
X48525Y-56605D01*
X48525Y-56396D01*
X48525Y-53605D01*
X48525Y-53396D01*
X48445Y-53203D01*
X48298Y-53055D01*
X48290Y-53051D01*
X48290Y-52524D01*
X48324Y-52524D01*
X48416Y-52486D01*
X48486Y-52416D01*
X48524Y-52325D01*
X48524Y-52226D01*
X48524Y-51676D01*
X48519Y-51663D01*
X48519Y-49074D01*
X48508Y-48870D01*
X48452Y-48733D01*
X48361Y-48710D01*
X48290Y-48781D01*
X48290Y-48639D01*
X48267Y-48548D01*
X48074Y-48481D01*
X47870Y-48492D01*
X47733Y-48548D01*
X47710Y-48639D01*
X48000Y-48929D01*
X48290Y-48639D01*
X48290Y-48781D01*
X48071Y-49000D01*
X48361Y-49290D01*
X48452Y-49267D01*
X48519Y-49074D01*
X48519Y-51663D01*
X48486Y-51584D01*
X48416Y-51514D01*
X48325Y-51476D01*
X48290Y-51476D01*
X48290Y-49361D01*
X48000Y-49071D01*
X47929Y-49142D01*
X47929Y-49000D01*
X47639Y-48710D01*
X47548Y-48733D01*
X47503Y-48859D01*
X47452Y-48733D01*
X47361Y-48710D01*
X47290Y-48781D01*
X47290Y-48639D01*
X47267Y-48548D01*
X47074Y-48481D01*
X46870Y-48492D01*
X46733Y-48548D01*
X46710Y-48639D01*
X47000Y-48929D01*
X47290Y-48639D01*
X47290Y-48781D01*
X47071Y-49000D01*
X47361Y-49290D01*
X47452Y-49267D01*
X47496Y-49140D01*
X47548Y-49267D01*
X47639Y-49290D01*
X47929Y-49000D01*
X47929Y-49142D01*
X47710Y-49361D01*
X47733Y-49452D01*
X47926Y-49519D01*
X48130Y-49508D01*
X48267Y-49452D01*
X48290Y-49361D01*
X48290Y-51476D01*
X48226Y-51476D01*
X47676Y-51476D01*
X47584Y-51514D01*
X47514Y-51584D01*
X47499Y-51617D01*
X47486Y-51584D01*
X47416Y-51514D01*
X47325Y-51476D01*
X47290Y-51476D01*
X47290Y-49361D01*
X47000Y-49071D01*
X46929Y-49142D01*
X46929Y-49000D01*
X46639Y-48710D01*
X46548Y-48733D01*
X46503Y-48859D01*
X46452Y-48733D01*
X46361Y-48710D01*
X46290Y-48781D01*
X46290Y-48639D01*
X46267Y-48548D01*
X46074Y-48481D01*
X45870Y-48492D01*
X45733Y-48548D01*
X45710Y-48639D01*
X46000Y-48929D01*
X46290Y-48639D01*
X46290Y-48781D01*
X46071Y-49000D01*
X46361Y-49290D01*
X46452Y-49267D01*
X46496Y-49140D01*
X46548Y-49267D01*
X46639Y-49290D01*
X46929Y-49000D01*
X46929Y-49142D01*
X46710Y-49361D01*
X46733Y-49452D01*
X46926Y-49519D01*
X47130Y-49508D01*
X47267Y-49452D01*
X47290Y-49361D01*
X47290Y-51476D01*
X47226Y-51476D01*
X46676Y-51476D01*
X46584Y-51514D01*
X46514Y-51584D01*
X46499Y-51617D01*
X46486Y-51584D01*
X46416Y-51514D01*
X46325Y-51476D01*
X46290Y-51476D01*
X46290Y-49361D01*
X46000Y-49071D01*
X45929Y-49142D01*
X45929Y-49000D01*
X45639Y-48710D01*
X45548Y-48733D01*
X45503Y-48859D01*
X45452Y-48733D01*
X45361Y-48710D01*
X45290Y-48781D01*
X45290Y-48639D01*
X45267Y-48548D01*
X45074Y-48481D01*
X44870Y-48492D01*
X44733Y-48548D01*
X44710Y-48639D01*
X45000Y-48929D01*
X45290Y-48639D01*
X45290Y-48781D01*
X45071Y-49000D01*
X45361Y-49290D01*
X45452Y-49267D01*
X45496Y-49140D01*
X45548Y-49267D01*
X45639Y-49290D01*
X45929Y-49000D01*
X45929Y-49142D01*
X45710Y-49361D01*
X45733Y-49452D01*
X45926Y-49519D01*
X46130Y-49508D01*
X46267Y-49452D01*
X46290Y-49361D01*
X46290Y-51476D01*
X46226Y-51476D01*
X45676Y-51476D01*
X45584Y-51514D01*
X45514Y-51584D01*
X45499Y-51617D01*
X45486Y-51584D01*
X45416Y-51514D01*
X45325Y-51476D01*
X45290Y-51476D01*
X45290Y-49361D01*
X45000Y-49071D01*
X44929Y-49142D01*
X44929Y-49000D01*
X44639Y-48710D01*
X44548Y-48733D01*
X44503Y-48859D01*
X44452Y-48733D01*
X44361Y-48710D01*
X44290Y-48781D01*
X44290Y-48639D01*
X44267Y-48548D01*
X44074Y-48481D01*
X43870Y-48492D01*
X43733Y-48548D01*
X43710Y-48639D01*
X44000Y-48929D01*
X44290Y-48639D01*
X44290Y-48781D01*
X44071Y-49000D01*
X44361Y-49290D01*
X44452Y-49267D01*
X44496Y-49140D01*
X44548Y-49267D01*
X44639Y-49290D01*
X44929Y-49000D01*
X44929Y-49142D01*
X44710Y-49361D01*
X44733Y-49452D01*
X44926Y-49519D01*
X45130Y-49508D01*
X45267Y-49452D01*
X45290Y-49361D01*
X45290Y-51476D01*
X45226Y-51476D01*
X44676Y-51476D01*
X44584Y-51514D01*
X44514Y-51584D01*
X44499Y-51617D01*
X44486Y-51584D01*
X44416Y-51514D01*
X44325Y-51476D01*
X44290Y-51476D01*
X44290Y-49361D01*
X44000Y-49071D01*
X43929Y-49142D01*
X43929Y-49000D01*
X43639Y-48710D01*
X43548Y-48733D01*
X43503Y-48859D01*
X43452Y-48733D01*
X43361Y-48710D01*
X43290Y-48781D01*
X43290Y-48639D01*
X43267Y-48548D01*
X43074Y-48481D01*
X42870Y-48492D01*
X42733Y-48548D01*
X42710Y-48639D01*
X43000Y-48929D01*
X43290Y-48639D01*
X43290Y-48781D01*
X43071Y-49000D01*
X43361Y-49290D01*
X43452Y-49267D01*
X43496Y-49140D01*
X43548Y-49267D01*
X43639Y-49290D01*
X43929Y-49000D01*
X43929Y-49142D01*
X43710Y-49361D01*
X43733Y-49452D01*
X43926Y-49519D01*
X44130Y-49508D01*
X44267Y-49452D01*
X44290Y-49361D01*
X44290Y-51476D01*
X44226Y-51476D01*
X43676Y-51476D01*
X43584Y-51514D01*
X43514Y-51584D01*
X43499Y-51617D01*
X43486Y-51584D01*
X43416Y-51514D01*
X43325Y-51476D01*
X43290Y-51476D01*
X43290Y-49361D01*
X43000Y-49071D01*
X42929Y-49142D01*
X42929Y-49000D01*
X42639Y-48710D01*
X42548Y-48733D01*
X42503Y-48859D01*
X42452Y-48733D01*
X42361Y-48710D01*
X42290Y-48781D01*
X42290Y-48639D01*
X42267Y-48548D01*
X42074Y-48481D01*
X41870Y-48492D01*
X41733Y-48548D01*
X41710Y-48639D01*
X42000Y-48929D01*
X42290Y-48639D01*
X42290Y-48781D01*
X42071Y-49000D01*
X42361Y-49290D01*
X42452Y-49267D01*
X42496Y-49140D01*
X42548Y-49267D01*
X42639Y-49290D01*
X42929Y-49000D01*
X42929Y-49142D01*
X42710Y-49361D01*
X42733Y-49452D01*
X42926Y-49519D01*
X43130Y-49508D01*
X43267Y-49452D01*
X43290Y-49361D01*
X43290Y-51476D01*
X43226Y-51476D01*
X42676Y-51476D01*
X42584Y-51514D01*
X42514Y-51584D01*
X42499Y-51617D01*
X42486Y-51584D01*
X42416Y-51514D01*
X42325Y-51476D01*
X42290Y-51476D01*
X42290Y-49361D01*
X42000Y-49071D01*
X41929Y-49142D01*
X41929Y-49000D01*
X41639Y-48710D01*
X41548Y-48733D01*
X41503Y-48859D01*
X41452Y-48733D01*
X41361Y-48710D01*
X41290Y-48781D01*
X41290Y-48639D01*
X41267Y-48548D01*
X41074Y-48481D01*
X40870Y-48492D01*
X40733Y-48548D01*
X40710Y-48639D01*
X41000Y-48929D01*
X41290Y-48639D01*
X41290Y-48781D01*
X41071Y-49000D01*
X41361Y-49290D01*
X41452Y-49267D01*
X41496Y-49140D01*
X41548Y-49267D01*
X41639Y-49290D01*
X41929Y-49000D01*
X41929Y-49142D01*
X41710Y-49361D01*
X41733Y-49452D01*
X41926Y-49519D01*
X42130Y-49508D01*
X42267Y-49452D01*
X42290Y-49361D01*
X42290Y-51476D01*
X42226Y-51476D01*
X41676Y-51476D01*
X41584Y-51514D01*
X41514Y-51584D01*
X41499Y-51617D01*
X41486Y-51584D01*
X41416Y-51514D01*
X41325Y-51476D01*
X41290Y-51476D01*
X41290Y-49361D01*
X41000Y-49071D01*
X40929Y-49142D01*
X40929Y-49000D01*
X40639Y-48710D01*
X40548Y-48733D01*
X40503Y-48859D01*
X40452Y-48733D01*
X40361Y-48710D01*
X40290Y-48781D01*
X40290Y-48639D01*
X40267Y-48548D01*
X40074Y-48481D01*
X39870Y-48492D01*
X39733Y-48548D01*
X39710Y-48639D01*
X40000Y-48929D01*
X40290Y-48639D01*
X40290Y-48781D01*
X40071Y-49000D01*
X40361Y-49290D01*
X40452Y-49267D01*
X40496Y-49140D01*
X40548Y-49267D01*
X40639Y-49290D01*
X40929Y-49000D01*
X40929Y-49142D01*
X40710Y-49361D01*
X40733Y-49452D01*
X40926Y-49519D01*
X41130Y-49508D01*
X41267Y-49452D01*
X41290Y-49361D01*
X41290Y-51476D01*
X41226Y-51476D01*
X40676Y-51476D01*
X40584Y-51514D01*
X40514Y-51584D01*
X40499Y-51617D01*
X40486Y-51584D01*
X40416Y-51514D01*
X40325Y-51476D01*
X40290Y-51476D01*
X40290Y-49361D01*
X40000Y-49071D01*
X39929Y-49142D01*
X39929Y-49000D01*
X39639Y-48710D01*
X39548Y-48733D01*
X39503Y-48859D01*
X39452Y-48733D01*
X39361Y-48710D01*
X39290Y-48781D01*
X39290Y-48639D01*
X39267Y-48548D01*
X39074Y-48481D01*
X38870Y-48492D01*
X38733Y-48548D01*
X38710Y-48639D01*
X39000Y-48929D01*
X39290Y-48639D01*
X39290Y-48781D01*
X39071Y-49000D01*
X39361Y-49290D01*
X39452Y-49267D01*
X39496Y-49140D01*
X39548Y-49267D01*
X39639Y-49290D01*
X39929Y-49000D01*
X39929Y-49142D01*
X39710Y-49361D01*
X39733Y-49452D01*
X39926Y-49519D01*
X40130Y-49508D01*
X40267Y-49452D01*
X40290Y-49361D01*
X40290Y-51476D01*
X40226Y-51476D01*
X39676Y-51476D01*
X39584Y-51514D01*
X39514Y-51584D01*
X39499Y-51617D01*
X39486Y-51584D01*
X39416Y-51514D01*
X39325Y-51476D01*
X39290Y-51476D01*
X39290Y-49361D01*
X39000Y-49071D01*
X38929Y-49142D01*
X38929Y-49000D01*
X38639Y-48710D01*
X38548Y-48733D01*
X38481Y-48926D01*
X38492Y-49130D01*
X38548Y-49267D01*
X38639Y-49290D01*
X38929Y-49000D01*
X38929Y-49142D01*
X38710Y-49361D01*
X38733Y-49452D01*
X38926Y-49519D01*
X39130Y-49508D01*
X39267Y-49452D01*
X39290Y-49361D01*
X39290Y-51476D01*
X39226Y-51476D01*
X38676Y-51476D01*
X38584Y-51514D01*
X38514Y-51584D01*
X38476Y-51675D01*
X38476Y-51774D01*
X38476Y-52324D01*
X38514Y-52416D01*
X38584Y-52486D01*
X38675Y-52524D01*
X38710Y-52524D01*
X38710Y-53052D01*
X38703Y-53055D01*
X38555Y-53202D01*
X38475Y-53395D01*
X38475Y-53604D01*
X38555Y-53797D01*
X38702Y-53945D01*
X38895Y-54025D01*
X39104Y-54025D01*
X39297Y-53945D01*
X39445Y-53798D01*
X39500Y-53664D01*
X39555Y-53797D01*
X39702Y-53945D01*
X39895Y-54025D01*
X40104Y-54025D01*
X40297Y-53945D01*
X40445Y-53798D01*
X40500Y-53664D01*
X40555Y-53797D01*
X40702Y-53945D01*
X40895Y-54025D01*
X41104Y-54025D01*
X41297Y-53945D01*
X41445Y-53798D01*
X41500Y-53664D01*
X41555Y-53797D01*
X41702Y-53945D01*
X41895Y-54025D01*
X42104Y-54025D01*
X42297Y-53945D01*
X42445Y-53798D01*
X42500Y-53664D01*
X42555Y-53797D01*
X42702Y-53945D01*
X42895Y-54025D01*
X43104Y-54025D01*
X43297Y-53945D01*
X43445Y-53798D01*
X43500Y-53664D01*
X43555Y-53797D01*
X43702Y-53945D01*
X43895Y-54025D01*
X44104Y-54025D01*
X44297Y-53945D01*
X44445Y-53798D01*
X44500Y-53664D01*
X44555Y-53797D01*
X44702Y-53945D01*
X44895Y-54025D01*
X45104Y-54025D01*
X45297Y-53945D01*
X45445Y-53798D01*
X45500Y-53664D01*
X45555Y-53797D01*
X45702Y-53945D01*
X45895Y-54025D01*
X46104Y-54025D01*
X46297Y-53945D01*
X46445Y-53798D01*
X46500Y-53664D01*
X46555Y-53797D01*
X46702Y-53945D01*
X46895Y-54025D01*
X47104Y-54025D01*
X47297Y-53945D01*
X47445Y-53798D01*
X47500Y-53664D01*
X47555Y-53797D01*
X47702Y-53945D01*
X47895Y-54025D01*
X48104Y-54025D01*
X48297Y-53945D01*
X48445Y-53798D01*
X48525Y-53605D01*
X48525Y-56396D01*
X48445Y-56203D01*
X48298Y-56055D01*
X48105Y-55975D01*
X47896Y-55975D01*
X47703Y-56055D01*
X47555Y-56202D01*
X47499Y-56335D01*
X47445Y-56203D01*
X47298Y-56055D01*
X47105Y-55975D01*
X46896Y-55975D01*
X46703Y-56055D01*
X46555Y-56202D01*
X46499Y-56335D01*
X46445Y-56203D01*
X46298Y-56055D01*
X46105Y-55975D01*
X45896Y-55975D01*
X45703Y-56055D01*
X45555Y-56202D01*
X45499Y-56335D01*
X45445Y-56203D01*
X45298Y-56055D01*
X45105Y-55975D01*
X44896Y-55975D01*
X44703Y-56055D01*
X44555Y-56202D01*
X44499Y-56335D01*
X44445Y-56203D01*
X44298Y-56055D01*
X44105Y-55975D01*
X43896Y-55975D01*
X43703Y-56055D01*
X43555Y-56202D01*
X43499Y-56335D01*
X43445Y-56203D01*
X43298Y-56055D01*
X43105Y-55975D01*
X42896Y-55975D01*
X42703Y-56055D01*
X42555Y-56202D01*
X42499Y-56335D01*
X42445Y-56203D01*
X42298Y-56055D01*
X42105Y-55975D01*
X41896Y-55975D01*
X41703Y-56055D01*
X41555Y-56202D01*
X41499Y-56335D01*
X41445Y-56203D01*
X41298Y-56055D01*
X41105Y-55975D01*
X40896Y-55975D01*
X40703Y-56055D01*
X40555Y-56202D01*
X40499Y-56335D01*
X40445Y-56203D01*
X40298Y-56055D01*
X40105Y-55975D01*
X39896Y-55975D01*
X39703Y-56055D01*
X39555Y-56202D01*
X39499Y-56335D01*
X39445Y-56203D01*
X39298Y-56055D01*
X39105Y-55975D01*
X38896Y-55975D01*
X38703Y-56055D01*
X38555Y-56202D01*
X38475Y-56395D01*
X38475Y-56604D01*
X38555Y-56797D01*
X38702Y-56945D01*
X38710Y-56948D01*
X38710Y-57451D01*
X38651Y-57451D01*
X38559Y-57489D01*
X38489Y-57559D01*
X38451Y-57650D01*
X38451Y-57749D01*
X38451Y-58349D01*
X38489Y-58441D01*
X38559Y-58511D01*
X38650Y-58549D01*
X38749Y-58549D01*
X39349Y-58549D01*
X39441Y-58511D01*
X39511Y-58441D01*
X39549Y-58350D01*
X39549Y-58325D01*
X39689Y-58465D01*
X39891Y-58549D01*
X40109Y-58549D01*
X40311Y-58465D01*
X40465Y-58311D01*
X40500Y-58226D01*
X40535Y-58311D01*
X40689Y-58465D01*
X40891Y-58549D01*
X41109Y-58549D01*
X41311Y-58465D01*
X41465Y-58311D01*
X41500Y-58226D01*
X41535Y-58311D01*
X41689Y-58465D01*
X41891Y-58549D01*
X42109Y-58549D01*
X42311Y-58465D01*
X42465Y-58311D01*
X42500Y-58226D01*
X42535Y-58311D01*
X42689Y-58465D01*
X42891Y-58549D01*
X43109Y-58549D01*
X43311Y-58465D01*
X43465Y-58311D01*
X43500Y-58226D01*
X43535Y-58311D01*
X43689Y-58465D01*
X43891Y-58549D01*
X44109Y-58549D01*
X44311Y-58465D01*
X44465Y-58311D01*
X44500Y-58226D01*
X44535Y-58311D01*
X44689Y-58465D01*
X44891Y-58549D01*
X45109Y-58549D01*
X45311Y-58465D01*
X45465Y-58311D01*
X45500Y-58226D01*
X45535Y-58311D01*
X45689Y-58465D01*
X45891Y-58549D01*
X46109Y-58549D01*
X46311Y-58465D01*
X46465Y-58311D01*
X46500Y-58226D01*
X46535Y-58311D01*
X46689Y-58465D01*
X46891Y-58549D01*
X47109Y-58549D01*
X47311Y-58465D01*
X47465Y-58311D01*
X47500Y-58226D01*
X47535Y-58311D01*
X47689Y-58465D01*
X47891Y-58549D01*
X48109Y-58549D01*
X48311Y-58465D01*
X48465Y-58311D01*
X48549Y-58109D01*
X48549Y-60950D01*
X48543Y-60950D01*
X48543Y-60079D01*
X48532Y-59866D01*
X48472Y-59719D01*
X48378Y-59692D01*
X48308Y-59762D01*
X48308Y-59622D01*
X48281Y-59528D01*
X48079Y-59457D01*
X47866Y-59468D01*
X47719Y-59528D01*
X47692Y-59622D01*
X48000Y-59929D01*
X48308Y-59622D01*
X48308Y-59762D01*
X48071Y-60000D01*
X48378Y-60308D01*
X48472Y-60281D01*
X48543Y-60079D01*
X48543Y-60950D01*
X48308Y-60950D01*
X48308Y-60378D01*
X48000Y-60071D01*
X47929Y-60141D01*
X47929Y-60000D01*
X47622Y-59692D01*
X47528Y-59719D01*
X47502Y-59792D01*
X47472Y-59719D01*
X47378Y-59692D01*
X47308Y-59762D01*
X47308Y-59622D01*
X47281Y-59528D01*
X47079Y-59457D01*
X46866Y-59468D01*
X46719Y-59528D01*
X46692Y-59622D01*
X47000Y-59929D01*
X47308Y-59622D01*
X47308Y-59762D01*
X47071Y-60000D01*
X47378Y-60308D01*
X47472Y-60281D01*
X47497Y-60207D01*
X47528Y-60281D01*
X47622Y-60308D01*
X47929Y-60000D01*
X47929Y-60141D01*
X47692Y-60378D01*
X47719Y-60472D01*
X47921Y-60543D01*
X48134Y-60532D01*
X48281Y-60472D01*
X48308Y-60378D01*
X48308Y-60950D01*
X47308Y-60950D01*
X47308Y-60378D01*
X47000Y-60071D01*
X46929Y-60141D01*
X46929Y-60000D01*
X46622Y-59692D01*
X46528Y-59719D01*
X46504Y-59784D01*
X46465Y-59689D01*
X46311Y-59535D01*
X46109Y-59451D01*
X45891Y-59451D01*
X45689Y-59535D01*
X45549Y-59675D01*
X45549Y-59651D01*
X45511Y-59559D01*
X45441Y-59489D01*
X45350Y-59451D01*
X45251Y-59451D01*
X44651Y-59451D01*
X44559Y-59489D01*
X44489Y-59559D01*
X44451Y-59650D01*
X44451Y-59749D01*
X44451Y-60349D01*
X44489Y-60441D01*
X44559Y-60511D01*
X44650Y-60549D01*
X44749Y-60549D01*
X45349Y-60549D01*
X45441Y-60511D01*
X45511Y-60441D01*
X45549Y-60350D01*
X45549Y-60325D01*
X45689Y-60465D01*
X45891Y-60549D01*
X46109Y-60549D01*
X46311Y-60465D01*
X46465Y-60311D01*
X46502Y-60219D01*
X46528Y-60281D01*
X46622Y-60308D01*
X46929Y-60000D01*
X46929Y-60141D01*
X46692Y-60378D01*
X46719Y-60472D01*
X46921Y-60543D01*
X47134Y-60532D01*
X47281Y-60472D01*
X47308Y-60378D01*
X47308Y-60950D01*
X42543Y-60950D01*
X42543Y-60079D01*
X42532Y-59866D01*
X42472Y-59719D01*
X42378Y-59692D01*
X42308Y-59762D01*
X42308Y-59622D01*
X42281Y-59528D01*
X42079Y-59457D01*
X41866Y-59468D01*
X41719Y-59528D01*
X41692Y-59622D01*
X42000Y-59929D01*
X42308Y-59622D01*
X42308Y-59762D01*
X42071Y-60000D01*
X42378Y-60308D01*
X42472Y-60281D01*
X42543Y-60079D01*
X42543Y-60950D01*
X42308Y-60950D01*
X42308Y-60378D01*
X42000Y-60071D01*
X41929Y-60141D01*
X41929Y-60000D01*
X41622Y-59692D01*
X41528Y-59719D01*
X41502Y-59792D01*
X41472Y-59719D01*
X41378Y-59692D01*
X41308Y-59762D01*
X41308Y-59622D01*
X41281Y-59528D01*
X41079Y-59457D01*
X40866Y-59468D01*
X40719Y-59528D01*
X40692Y-59622D01*
X41000Y-59929D01*
X41308Y-59622D01*
X41308Y-59762D01*
X41071Y-60000D01*
X41378Y-60308D01*
X41472Y-60281D01*
X41497Y-60207D01*
X41528Y-60281D01*
X41622Y-60308D01*
X41929Y-60000D01*
X41929Y-60141D01*
X41692Y-60378D01*
X41719Y-60472D01*
X41921Y-60543D01*
X42134Y-60532D01*
X42281Y-60472D01*
X42308Y-60378D01*
X42308Y-60950D01*
X41308Y-60950D01*
X41308Y-60378D01*
X41000Y-60071D01*
X40692Y-60378D01*
X40719Y-60472D01*
X40921Y-60543D01*
X41134Y-60532D01*
X41281Y-60472D01*
X41308Y-60378D01*
X41308Y-60950D01*
X37550Y-60950D01*
X37550Y-44550D01*
X59450Y-44550D01*
X59450Y-60950D01*
X59450Y-60950D01*
G37*
G54D17*
X59450Y-60950D02*
X58790Y-60950D01*
X58790Y-47500D01*
X58790Y-46000D01*
X58768Y-45889D01*
X58705Y-45795D01*
X58540Y-45630D01*
X58549Y-45609D01*
X58549Y-45391D01*
X58465Y-45189D01*
X58311Y-45035D01*
X58109Y-44951D01*
X57891Y-44951D01*
X57689Y-45035D01*
X57535Y-45189D01*
X57500Y-45273D01*
X57465Y-45189D01*
X57311Y-45035D01*
X57109Y-44951D01*
X56891Y-44951D01*
X56689Y-45035D01*
X56535Y-45189D01*
X56500Y-45273D01*
X56465Y-45189D01*
X56311Y-45035D01*
X56109Y-44951D01*
X55891Y-44951D01*
X55689Y-45035D01*
X55535Y-45189D01*
X55500Y-45273D01*
X55465Y-45189D01*
X55311Y-45035D01*
X55109Y-44951D01*
X54891Y-44951D01*
X54689Y-45035D01*
X54535Y-45189D01*
X54500Y-45273D01*
X54465Y-45189D01*
X54311Y-45035D01*
X54109Y-44951D01*
X53891Y-44951D01*
X53689Y-45035D01*
X53535Y-45189D01*
X53497Y-45280D01*
X53472Y-45219D01*
X53378Y-45192D01*
X53308Y-45262D01*
X53308Y-45122D01*
X53281Y-45028D01*
X53079Y-44957D01*
X52866Y-44968D01*
X52719Y-45028D01*
X52692Y-45122D01*
X53000Y-45429D01*
X53308Y-45122D01*
X53308Y-45262D01*
X53071Y-45500D01*
X53378Y-45808D01*
X53472Y-45781D01*
X53495Y-45715D01*
X53535Y-45811D01*
X53689Y-45965D01*
X53773Y-46000D01*
X53689Y-46035D01*
X53535Y-46189D01*
X53500Y-46273D01*
X53465Y-46189D01*
X53311Y-46035D01*
X53219Y-45997D01*
X53281Y-45972D01*
X53308Y-45878D01*
X53000Y-45571D01*
X52692Y-45878D01*
X52719Y-45972D01*
X52784Y-45995D01*
X52689Y-46035D01*
X52535Y-46189D01*
X52500Y-46273D01*
X52465Y-46189D01*
X52311Y-46035D01*
X52226Y-46000D01*
X52311Y-45965D01*
X52465Y-45811D01*
X52502Y-45719D01*
X52528Y-45781D01*
X52622Y-45808D01*
X52929Y-45500D01*
X52622Y-45192D01*
X52528Y-45219D01*
X52504Y-45284D01*
X52465Y-45189D01*
X52311Y-45035D01*
X52109Y-44951D01*
X51891Y-44951D01*
X51689Y-45035D01*
X51535Y-45189D01*
X51500Y-45273D01*
X51465Y-45189D01*
X51311Y-45035D01*
X51109Y-44951D01*
X50891Y-44951D01*
X50689Y-45035D01*
X50535Y-45189D01*
X50500Y-45273D01*
X50465Y-45189D01*
X50311Y-45035D01*
X50109Y-44951D01*
X49891Y-44951D01*
X49689Y-45035D01*
X49535Y-45189D01*
X49500Y-45273D01*
X49465Y-45189D01*
X49311Y-45035D01*
X49109Y-44951D01*
X48891Y-44951D01*
X48689Y-45035D01*
X48535Y-45189D01*
X48500Y-45273D01*
X48465Y-45189D01*
X48311Y-45035D01*
X48109Y-44951D01*
X47891Y-44951D01*
X47689Y-45035D01*
X47535Y-45189D01*
X47500Y-45273D01*
X47465Y-45189D01*
X47311Y-45035D01*
X47109Y-44951D01*
X46891Y-44951D01*
X46689Y-45035D01*
X46535Y-45189D01*
X46500Y-45273D01*
X46465Y-45189D01*
X46311Y-45035D01*
X46109Y-44951D01*
X45891Y-44951D01*
X45689Y-45035D01*
X45535Y-45189D01*
X45500Y-45273D01*
X45465Y-45189D01*
X45311Y-45035D01*
X45109Y-44951D01*
X44891Y-44951D01*
X44689Y-45035D01*
X44535Y-45189D01*
X44500Y-45273D01*
X44465Y-45189D01*
X44311Y-45035D01*
X44109Y-44951D01*
X43891Y-44951D01*
X43689Y-45035D01*
X43535Y-45189D01*
X43500Y-45273D01*
X43465Y-45189D01*
X43311Y-45035D01*
X43109Y-44951D01*
X42891Y-44951D01*
X42689Y-45035D01*
X42535Y-45189D01*
X42500Y-45273D01*
X42465Y-45189D01*
X42311Y-45035D01*
X42109Y-44951D01*
X41891Y-44951D01*
X41689Y-45035D01*
X41535Y-45189D01*
X41497Y-45280D01*
X41472Y-45219D01*
X41378Y-45192D01*
X41308Y-45262D01*
X41308Y-45122D01*
X41281Y-45028D01*
X41079Y-44957D01*
X40866Y-44968D01*
X40719Y-45028D01*
X40692Y-45122D01*
X41000Y-45429D01*
X41308Y-45122D01*
X41308Y-45262D01*
X41071Y-45500D01*
X41378Y-45808D01*
X41472Y-45781D01*
X41495Y-45715D01*
X41535Y-45811D01*
X41689Y-45965D01*
X41773Y-46000D01*
X41689Y-46035D01*
X41535Y-46189D01*
X41500Y-46273D01*
X41465Y-46189D01*
X41311Y-46035D01*
X41219Y-45997D01*
X41281Y-45972D01*
X41308Y-45878D01*
X41000Y-45571D01*
X40929Y-45641D01*
X40929Y-45500D01*
X40622Y-45192D01*
X40528Y-45219D01*
X40502Y-45292D01*
X40472Y-45219D01*
X40378Y-45192D01*
X40308Y-45262D01*
X40308Y-45122D01*
X40281Y-45028D01*
X40079Y-44957D01*
X39866Y-44968D01*
X39719Y-45028D01*
X39692Y-45122D01*
X40000Y-45429D01*
X40308Y-45122D01*
X40308Y-45262D01*
X40071Y-45500D01*
X40378Y-45808D01*
X40472Y-45781D01*
X40497Y-45707D01*
X40528Y-45781D01*
X40622Y-45808D01*
X40929Y-45500D01*
X40929Y-45641D01*
X40692Y-45878D01*
X40719Y-45972D01*
X40784Y-45995D01*
X40689Y-46035D01*
X40535Y-46189D01*
X40500Y-46273D01*
X40465Y-46189D01*
X40311Y-46035D01*
X40219Y-45997D01*
X40281Y-45972D01*
X40308Y-45878D01*
X40000Y-45571D01*
X39692Y-45878D01*
X39719Y-45972D01*
X39784Y-45995D01*
X39689Y-46035D01*
X39549Y-46175D01*
X39549Y-46151D01*
X39511Y-46059D01*
X39441Y-45989D01*
X39350Y-45951D01*
X39325Y-45951D01*
X39465Y-45811D01*
X39502Y-45719D01*
X39528Y-45781D01*
X39622Y-45808D01*
X39929Y-45500D01*
X39622Y-45192D01*
X39528Y-45219D01*
X39504Y-45284D01*
X39465Y-45189D01*
X39311Y-45035D01*
X39109Y-44951D01*
X38891Y-44951D01*
X38689Y-45035D01*
X38535Y-45189D01*
X38451Y-45391D01*
X38451Y-45609D01*
X38535Y-45811D01*
X38675Y-45951D01*
X38651Y-45951D01*
X38559Y-45989D01*
X38489Y-46059D01*
X38451Y-46150D01*
X38451Y-46249D01*
X38451Y-46639D01*
X37795Y-47295D01*
X37732Y-47389D01*
X37710Y-47500D01*
X37710Y-59000D01*
X37732Y-59111D01*
X37795Y-59205D01*
X38451Y-59861D01*
X38451Y-60349D01*
X38489Y-60441D01*
X38559Y-60511D01*
X38650Y-60549D01*
X38749Y-60549D01*
X39349Y-60549D01*
X39441Y-60511D01*
X39511Y-60441D01*
X39549Y-60350D01*
X39549Y-60325D01*
X39689Y-60465D01*
X39891Y-60549D01*
X40109Y-60549D01*
X40311Y-60465D01*
X40465Y-60311D01*
X40502Y-60219D01*
X40528Y-60281D01*
X40622Y-60308D01*
X40929Y-60000D01*
X40622Y-59692D01*
X40528Y-59719D01*
X40504Y-59784D01*
X40465Y-59689D01*
X40311Y-59535D01*
X40109Y-59451D01*
X39891Y-59451D01*
X39689Y-59535D01*
X39549Y-59675D01*
X39549Y-59651D01*
X39511Y-59559D01*
X39441Y-59489D01*
X39350Y-59451D01*
X39251Y-59451D01*
X38861Y-59451D01*
X38290Y-58880D01*
X38290Y-47620D01*
X38861Y-47049D01*
X39349Y-47049D01*
X39441Y-47011D01*
X39511Y-46941D01*
X39549Y-46850D01*
X39549Y-46825D01*
X39689Y-46965D01*
X39891Y-47049D01*
X40109Y-47049D01*
X40311Y-46965D01*
X40465Y-46811D01*
X40500Y-46726D01*
X40535Y-46811D01*
X40689Y-46965D01*
X40891Y-47049D01*
X41109Y-47049D01*
X41311Y-46965D01*
X41465Y-46811D01*
X41500Y-46726D01*
X41535Y-46811D01*
X41689Y-46965D01*
X41891Y-47049D01*
X42109Y-47049D01*
X42311Y-46965D01*
X42465Y-46811D01*
X42500Y-46726D01*
X42535Y-46811D01*
X42689Y-46965D01*
X42891Y-47049D01*
X43109Y-47049D01*
X43311Y-46965D01*
X43465Y-46811D01*
X43500Y-46726D01*
X43535Y-46811D01*
X43689Y-46965D01*
X43891Y-47049D01*
X44109Y-47049D01*
X44311Y-46965D01*
X44465Y-46811D01*
X44500Y-46726D01*
X44535Y-46811D01*
X44689Y-46965D01*
X44891Y-47049D01*
X45109Y-47049D01*
X45311Y-46965D01*
X45465Y-46811D01*
X45500Y-46726D01*
X45535Y-46811D01*
X45689Y-46965D01*
X45891Y-47049D01*
X46109Y-47049D01*
X46311Y-46965D01*
X46465Y-46811D01*
X46500Y-46726D01*
X46535Y-46811D01*
X46689Y-46965D01*
X46891Y-47049D01*
X47109Y-47049D01*
X47311Y-46965D01*
X47465Y-46811D01*
X47500Y-46726D01*
X47535Y-46811D01*
X47689Y-46965D01*
X47891Y-47049D01*
X48109Y-47049D01*
X48210Y-47007D01*
X48210Y-48000D01*
X48232Y-48111D01*
X48295Y-48205D01*
X50295Y-50205D01*
X50389Y-50268D01*
X50500Y-50290D01*
X53880Y-50290D01*
X55476Y-51886D01*
X55476Y-52324D01*
X55514Y-52416D01*
X55584Y-52486D01*
X55675Y-52524D01*
X55774Y-52524D01*
X56324Y-52524D01*
X56416Y-52486D01*
X56486Y-52416D01*
X56524Y-52325D01*
X56524Y-52226D01*
X56524Y-51676D01*
X56486Y-51584D01*
X56416Y-51514D01*
X56325Y-51476D01*
X56226Y-51476D01*
X56222Y-51476D01*
X56297Y-51445D01*
X56445Y-51298D01*
X56525Y-51105D01*
X56525Y-50896D01*
X56445Y-50703D01*
X56298Y-50555D01*
X56164Y-50499D01*
X56297Y-50445D01*
X56445Y-50298D01*
X56525Y-50105D01*
X56525Y-49896D01*
X56445Y-49703D01*
X56298Y-49555D01*
X56164Y-49499D01*
X56297Y-49445D01*
X56445Y-49298D01*
X56525Y-49105D01*
X56525Y-48896D01*
X56445Y-48703D01*
X56298Y-48555D01*
X56164Y-48499D01*
X56297Y-48445D01*
X56445Y-48298D01*
X56525Y-48105D01*
X56525Y-47896D01*
X56445Y-47703D01*
X56298Y-47555D01*
X56290Y-47551D01*
X56290Y-47500D01*
X56268Y-47389D01*
X56205Y-47295D01*
X55959Y-47049D01*
X56109Y-47049D01*
X56311Y-46965D01*
X56465Y-46811D01*
X56500Y-46726D01*
X56535Y-46811D01*
X56689Y-46965D01*
X56891Y-47049D01*
X57109Y-47049D01*
X57210Y-47007D01*
X57210Y-48500D01*
X57232Y-48611D01*
X57295Y-48705D01*
X57477Y-48887D01*
X57475Y-48895D01*
X57475Y-49104D01*
X57555Y-49297D01*
X57702Y-49445D01*
X57835Y-49500D01*
X57703Y-49555D01*
X57555Y-49702D01*
X57475Y-49895D01*
X57475Y-50104D01*
X57555Y-50297D01*
X57702Y-50445D01*
X57835Y-50500D01*
X57703Y-50555D01*
X57555Y-50702D01*
X57475Y-50895D01*
X57475Y-51104D01*
X57555Y-51297D01*
X57702Y-51445D01*
X57776Y-51476D01*
X57676Y-51476D01*
X57584Y-51514D01*
X57514Y-51584D01*
X57476Y-51675D01*
X57476Y-51774D01*
X57476Y-52324D01*
X57514Y-52416D01*
X57584Y-52486D01*
X57675Y-52524D01*
X57774Y-52524D01*
X58324Y-52524D01*
X58416Y-52486D01*
X58486Y-52416D01*
X58524Y-52325D01*
X58524Y-52226D01*
X58524Y-51676D01*
X58486Y-51584D01*
X58416Y-51514D01*
X58325Y-51476D01*
X58226Y-51476D01*
X58222Y-51476D01*
X58297Y-51445D01*
X58445Y-51298D01*
X58525Y-51105D01*
X58525Y-50896D01*
X58445Y-50703D01*
X58298Y-50555D01*
X58164Y-50499D01*
X58297Y-50445D01*
X58445Y-50298D01*
X58525Y-50105D01*
X58525Y-49896D01*
X58445Y-49703D01*
X58298Y-49555D01*
X58164Y-49499D01*
X58297Y-49445D01*
X58445Y-49298D01*
X58525Y-49105D01*
X58525Y-48896D01*
X58445Y-48703D01*
X58298Y-48555D01*
X58164Y-48499D01*
X58297Y-48445D01*
X58445Y-48298D01*
X58525Y-48105D01*
X58525Y-47896D01*
X58521Y-47888D01*
X58705Y-47705D01*
X58768Y-47611D01*
X58790Y-47500D01*
X58790Y-60950D01*
X57049Y-60950D01*
X57049Y-58350D01*
X57049Y-58251D01*
X57049Y-57651D01*
X57011Y-57559D01*
X56941Y-57489D01*
X56850Y-57451D01*
X56751Y-57451D01*
X56543Y-57451D01*
X56543Y-56579D01*
X56532Y-56366D01*
X56472Y-56219D01*
X56378Y-56192D01*
X56308Y-56262D01*
X56308Y-56122D01*
X56281Y-56028D01*
X56079Y-55957D01*
X55866Y-55968D01*
X55719Y-56028D01*
X55692Y-56122D01*
X56000Y-56429D01*
X56308Y-56122D01*
X56308Y-56262D01*
X56071Y-56500D01*
X56378Y-56808D01*
X56472Y-56781D01*
X56543Y-56579D01*
X56543Y-57451D01*
X56361Y-57451D01*
X55951Y-57041D01*
X56134Y-57032D01*
X56281Y-56972D01*
X56308Y-56878D01*
X56035Y-56606D01*
X56000Y-56571D01*
X55929Y-56500D01*
X55894Y-56465D01*
X55622Y-56192D01*
X55528Y-56219D01*
X55504Y-56284D01*
X55465Y-56189D01*
X55311Y-56035D01*
X55109Y-55951D01*
X54891Y-55951D01*
X54689Y-56035D01*
X54535Y-56189D01*
X54500Y-56273D01*
X54465Y-56189D01*
X54311Y-56035D01*
X54109Y-55951D01*
X53891Y-55951D01*
X53689Y-56035D01*
X53535Y-56189D01*
X53500Y-56273D01*
X53465Y-56189D01*
X53311Y-56035D01*
X53109Y-55951D01*
X52891Y-55951D01*
X52689Y-56035D01*
X52535Y-56189D01*
X52500Y-56273D01*
X52465Y-56189D01*
X52311Y-56035D01*
X52109Y-55951D01*
X51959Y-55951D01*
X52154Y-55755D01*
X52259Y-55860D01*
X52415Y-55925D01*
X52584Y-55925D01*
X52740Y-55861D01*
X52860Y-55741D01*
X52925Y-55585D01*
X52925Y-55485D01*
X54205Y-54205D01*
X54268Y-54111D01*
X54290Y-54000D01*
X54290Y-53973D01*
X54311Y-53965D01*
X54465Y-53811D01*
X54500Y-53726D01*
X54535Y-53811D01*
X54689Y-53965D01*
X54710Y-53973D01*
X54710Y-54380D01*
X54015Y-55075D01*
X53916Y-55075D01*
X53760Y-55139D01*
X53640Y-55259D01*
X53575Y-55415D01*
X53575Y-55584D01*
X53639Y-55740D01*
X53759Y-55860D01*
X53915Y-55925D01*
X54084Y-55925D01*
X54240Y-55861D01*
X54360Y-55741D01*
X54425Y-55585D01*
X54425Y-55485D01*
X55205Y-54705D01*
X55268Y-54611D01*
X55290Y-54500D01*
X55290Y-53973D01*
X55311Y-53965D01*
X55451Y-53825D01*
X55451Y-53849D01*
X55489Y-53941D01*
X55559Y-54011D01*
X55650Y-54049D01*
X55749Y-54049D01*
X56349Y-54049D01*
X56441Y-54011D01*
X56511Y-53941D01*
X56549Y-53850D01*
X56549Y-53751D01*
X56549Y-53151D01*
X56511Y-53059D01*
X56441Y-52989D01*
X56350Y-52951D01*
X56251Y-52951D01*
X55651Y-52951D01*
X55559Y-52989D01*
X55489Y-53059D01*
X55451Y-53150D01*
X55451Y-53175D01*
X55311Y-53035D01*
X55109Y-52951D01*
X54891Y-52951D01*
X54689Y-53035D01*
X54535Y-53189D01*
X54500Y-53273D01*
X54465Y-53189D01*
X54311Y-53035D01*
X54109Y-52951D01*
X53891Y-52951D01*
X53689Y-53035D01*
X53535Y-53189D01*
X53500Y-53273D01*
X53465Y-53189D01*
X53311Y-53035D01*
X53109Y-52951D01*
X52891Y-52951D01*
X52689Y-53035D01*
X52535Y-53189D01*
X52500Y-53273D01*
X52465Y-53189D01*
X52311Y-53035D01*
X52109Y-52951D01*
X51959Y-52951D01*
X52120Y-52790D01*
X53000Y-52790D01*
X53111Y-52768D01*
X53205Y-52705D01*
X53887Y-52022D01*
X53895Y-52025D01*
X54104Y-52025D01*
X54297Y-51945D01*
X54445Y-51798D01*
X54525Y-51605D01*
X54525Y-51396D01*
X54445Y-51203D01*
X54298Y-51055D01*
X54105Y-50975D01*
X53896Y-50975D01*
X53703Y-51055D01*
X53555Y-51202D01*
X53499Y-51335D01*
X53445Y-51203D01*
X53298Y-51055D01*
X53105Y-50975D01*
X52896Y-50975D01*
X52703Y-51055D01*
X52555Y-51202D01*
X52499Y-51335D01*
X52445Y-51203D01*
X52298Y-51055D01*
X52105Y-50975D01*
X51896Y-50975D01*
X51703Y-51055D01*
X51555Y-51202D01*
X51499Y-51335D01*
X51445Y-51203D01*
X51298Y-51055D01*
X51105Y-50975D01*
X50896Y-50975D01*
X50703Y-51055D01*
X50555Y-51202D01*
X50499Y-51335D01*
X50445Y-51203D01*
X50298Y-51055D01*
X50105Y-50975D01*
X49896Y-50975D01*
X49703Y-51055D01*
X49555Y-51202D01*
X49475Y-51395D01*
X49475Y-51604D01*
X49555Y-51797D01*
X49702Y-51945D01*
X49710Y-51948D01*
X49710Y-52380D01*
X49295Y-52795D01*
X49232Y-52889D01*
X49210Y-53000D01*
X49210Y-56000D01*
X49232Y-56111D01*
X49295Y-56205D01*
X49459Y-56369D01*
X49451Y-56391D01*
X49451Y-56609D01*
X49535Y-56811D01*
X49689Y-56965D01*
X49891Y-57049D01*
X50109Y-57049D01*
X50311Y-56965D01*
X50465Y-56811D01*
X50500Y-56726D01*
X50535Y-56811D01*
X50689Y-56965D01*
X50891Y-57049D01*
X51041Y-57049D01*
X50630Y-57459D01*
X50609Y-57451D01*
X50391Y-57451D01*
X50189Y-57535D01*
X50035Y-57689D01*
X50000Y-57773D01*
X49965Y-57689D01*
X49811Y-57535D01*
X49609Y-57451D01*
X49391Y-57451D01*
X49189Y-57535D01*
X49035Y-57689D01*
X48951Y-57891D01*
X48951Y-58109D01*
X49035Y-58311D01*
X49189Y-58465D01*
X49391Y-58549D01*
X49609Y-58549D01*
X49811Y-58465D01*
X49965Y-58311D01*
X50000Y-58226D01*
X50035Y-58311D01*
X50189Y-58465D01*
X50391Y-58549D01*
X50609Y-58549D01*
X50811Y-58465D01*
X50965Y-58311D01*
X51000Y-58226D01*
X51035Y-58311D01*
X51189Y-58465D01*
X51391Y-58549D01*
X51609Y-58549D01*
X51811Y-58465D01*
X51965Y-58311D01*
X52000Y-58226D01*
X52035Y-58311D01*
X52189Y-58465D01*
X52391Y-58549D01*
X52609Y-58549D01*
X52811Y-58465D01*
X52965Y-58311D01*
X53000Y-58226D01*
X53035Y-58311D01*
X53189Y-58465D01*
X53391Y-58549D01*
X53609Y-58549D01*
X53811Y-58465D01*
X53965Y-58311D01*
X54000Y-58226D01*
X54035Y-58311D01*
X54189Y-58465D01*
X54391Y-58549D01*
X54609Y-58549D01*
X54811Y-58465D01*
X54965Y-58311D01*
X55000Y-58226D01*
X55035Y-58311D01*
X55189Y-58465D01*
X55391Y-58549D01*
X55609Y-58549D01*
X55811Y-58465D01*
X55951Y-58325D01*
X55951Y-58349D01*
X55989Y-58441D01*
X56059Y-58511D01*
X56150Y-58549D01*
X56249Y-58549D01*
X56849Y-58549D01*
X56941Y-58511D01*
X57011Y-58441D01*
X57049Y-58350D01*
X57049Y-60950D01*
X48549Y-60950D01*
X48549Y-58109D01*
X48549Y-57891D01*
X48465Y-57689D01*
X48311Y-57535D01*
X48290Y-57526D01*
X48290Y-56947D01*
X48297Y-56945D01*
X48445Y-56798D01*
X48525Y-56605D01*
X48525Y-56396D01*
X48525Y-53605D01*
X48525Y-53396D01*
X48445Y-53203D01*
X48298Y-53055D01*
X48290Y-53051D01*
X48290Y-52524D01*
X48324Y-52524D01*
X48416Y-52486D01*
X48486Y-52416D01*
X48524Y-52325D01*
X48524Y-52226D01*
X48524Y-51676D01*
X48519Y-51663D01*
X48519Y-49074D01*
X48508Y-48870D01*
X48452Y-48733D01*
X48361Y-48710D01*
X48290Y-48781D01*
X48290Y-48639D01*
X48267Y-48548D01*
X48074Y-48481D01*
X47870Y-48492D01*
X47733Y-48548D01*
X47710Y-48639D01*
X48000Y-48929D01*
X48290Y-48639D01*
X48290Y-48781D01*
X48071Y-49000D01*
X48361Y-49290D01*
X48452Y-49267D01*
X48519Y-49074D01*
X48519Y-51663D01*
X48486Y-51584D01*
X48416Y-51514D01*
X48325Y-51476D01*
X48290Y-51476D01*
X48290Y-49361D01*
X48000Y-49071D01*
X47929Y-49142D01*
X47929Y-49000D01*
X47639Y-48710D01*
X47548Y-48733D01*
X47503Y-48859D01*
X47452Y-48733D01*
X47361Y-48710D01*
X47290Y-48781D01*
X47290Y-48639D01*
X47267Y-48548D01*
X47074Y-48481D01*
X46870Y-48492D01*
X46733Y-48548D01*
X46710Y-48639D01*
X47000Y-48929D01*
X47290Y-48639D01*
X47290Y-48781D01*
X47071Y-49000D01*
X47361Y-49290D01*
X47452Y-49267D01*
X47496Y-49140D01*
X47548Y-49267D01*
X47639Y-49290D01*
X47929Y-49000D01*
X47929Y-49142D01*
X47710Y-49361D01*
X47733Y-49452D01*
X47926Y-49519D01*
X48130Y-49508D01*
X48267Y-49452D01*
X48290Y-49361D01*
X48290Y-51476D01*
X48226Y-51476D01*
X47676Y-51476D01*
X47584Y-51514D01*
X47514Y-51584D01*
X47499Y-51617D01*
X47486Y-51584D01*
X47416Y-51514D01*
X47325Y-51476D01*
X47290Y-51476D01*
X47290Y-49361D01*
X47000Y-49071D01*
X46929Y-49142D01*
X46929Y-49000D01*
X46639Y-48710D01*
X46548Y-48733D01*
X46503Y-48859D01*
X46452Y-48733D01*
X46361Y-48710D01*
X46290Y-48781D01*
X46290Y-48639D01*
X46267Y-48548D01*
X46074Y-48481D01*
X45870Y-48492D01*
X45733Y-48548D01*
X45710Y-48639D01*
X46000Y-48929D01*
X46290Y-48639D01*
X46290Y-48781D01*
X46071Y-49000D01*
X46361Y-49290D01*
X46452Y-49267D01*
X46496Y-49140D01*
X46548Y-49267D01*
X46639Y-49290D01*
X46929Y-49000D01*
X46929Y-49142D01*
X46710Y-49361D01*
X46733Y-49452D01*
X46926Y-49519D01*
X47130Y-49508D01*
X47267Y-49452D01*
X47290Y-49361D01*
X47290Y-51476D01*
X47226Y-51476D01*
X46676Y-51476D01*
X46584Y-51514D01*
X46514Y-51584D01*
X46499Y-51617D01*
X46486Y-51584D01*
X46416Y-51514D01*
X46325Y-51476D01*
X46290Y-51476D01*
X46290Y-49361D01*
X46000Y-49071D01*
X45929Y-49142D01*
X45929Y-49000D01*
X45639Y-48710D01*
X45548Y-48733D01*
X45503Y-48859D01*
X45452Y-48733D01*
X45361Y-48710D01*
X45290Y-48781D01*
X45290Y-48639D01*
X45267Y-48548D01*
X45074Y-48481D01*
X44870Y-48492D01*
X44733Y-48548D01*
X44710Y-48639D01*
X45000Y-48929D01*
X45290Y-48639D01*
X45290Y-48781D01*
X45071Y-49000D01*
X45361Y-49290D01*
X45452Y-49267D01*
X45496Y-49140D01*
X45548Y-49267D01*
X45639Y-49290D01*
X45929Y-49000D01*
X45929Y-49142D01*
X45710Y-49361D01*
X45733Y-49452D01*
X45926Y-49519D01*
X46130Y-49508D01*
X46267Y-49452D01*
X46290Y-49361D01*
X46290Y-51476D01*
X46226Y-51476D01*
X45676Y-51476D01*
X45584Y-51514D01*
X45514Y-51584D01*
X45499Y-51617D01*
X45486Y-51584D01*
X45416Y-51514D01*
X45325Y-51476D01*
X45290Y-51476D01*
X45290Y-49361D01*
X45000Y-49071D01*
X44929Y-49142D01*
X44929Y-49000D01*
X44639Y-48710D01*
X44548Y-48733D01*
X44503Y-48859D01*
X44452Y-48733D01*
X44361Y-48710D01*
X44290Y-48781D01*
X44290Y-48639D01*
X44267Y-48548D01*
X44074Y-48481D01*
X43870Y-48492D01*
X43733Y-48548D01*
X43710Y-48639D01*
X44000Y-48929D01*
X44290Y-48639D01*
X44290Y-48781D01*
X44071Y-49000D01*
X44361Y-49290D01*
X44452Y-49267D01*
X44496Y-49140D01*
X44548Y-49267D01*
X44639Y-49290D01*
X44929Y-49000D01*
X44929Y-49142D01*
X44710Y-49361D01*
X44733Y-49452D01*
X44926Y-49519D01*
X45130Y-49508D01*
X45267Y-49452D01*
X45290Y-49361D01*
X45290Y-51476D01*
X45226Y-51476D01*
X44676Y-51476D01*
X44584Y-51514D01*
X44514Y-51584D01*
X44499Y-51617D01*
X44486Y-51584D01*
X44416Y-51514D01*
X44325Y-51476D01*
X44290Y-51476D01*
X44290Y-49361D01*
X44000Y-49071D01*
X43929Y-49142D01*
X43929Y-49000D01*
X43639Y-48710D01*
X43548Y-48733D01*
X43503Y-48859D01*
X43452Y-48733D01*
X43361Y-48710D01*
X43290Y-48781D01*
X43290Y-48639D01*
X43267Y-48548D01*
X43074Y-48481D01*
X42870Y-48492D01*
X42733Y-48548D01*
X42710Y-48639D01*
X43000Y-48929D01*
X43290Y-48639D01*
X43290Y-48781D01*
X43071Y-49000D01*
X43361Y-49290D01*
X43452Y-49267D01*
X43496Y-49140D01*
X43548Y-49267D01*
X43639Y-49290D01*
X43929Y-49000D01*
X43929Y-49142D01*
X43710Y-49361D01*
X43733Y-49452D01*
X43926Y-49519D01*
X44130Y-49508D01*
X44267Y-49452D01*
X44290Y-49361D01*
X44290Y-51476D01*
X44226Y-51476D01*
X43676Y-51476D01*
X43584Y-51514D01*
X43514Y-51584D01*
X43499Y-51617D01*
X43486Y-51584D01*
X43416Y-51514D01*
X43325Y-51476D01*
X43290Y-51476D01*
X43290Y-49361D01*
X43000Y-49071D01*
X42929Y-49142D01*
X42929Y-49000D01*
X42639Y-48710D01*
X42548Y-48733D01*
X42503Y-48859D01*
X42452Y-48733D01*
X42361Y-48710D01*
X42290Y-48781D01*
X42290Y-48639D01*
X42267Y-48548D01*
X42074Y-48481D01*
X41870Y-48492D01*
X41733Y-48548D01*
X41710Y-48639D01*
X42000Y-48929D01*
X42290Y-48639D01*
X42290Y-48781D01*
X42071Y-49000D01*
X42361Y-49290D01*
X42452Y-49267D01*
X42496Y-49140D01*
X42548Y-49267D01*
X42639Y-49290D01*
X42929Y-49000D01*
X42929Y-49142D01*
X42710Y-49361D01*
X42733Y-49452D01*
X42926Y-49519D01*
X43130Y-49508D01*
X43267Y-49452D01*
X43290Y-49361D01*
X43290Y-51476D01*
X43226Y-51476D01*
X42676Y-51476D01*
X42584Y-51514D01*
X42514Y-51584D01*
X42499Y-51617D01*
X42486Y-51584D01*
X42416Y-51514D01*
X42325Y-51476D01*
X42290Y-51476D01*
X42290Y-49361D01*
X42000Y-49071D01*
X41929Y-49142D01*
X41929Y-49000D01*
X41639Y-48710D01*
X41548Y-48733D01*
X41503Y-48859D01*
X41452Y-48733D01*
X41361Y-48710D01*
X41290Y-48781D01*
X41290Y-48639D01*
X41267Y-48548D01*
X41074Y-48481D01*
X40870Y-48492D01*
X40733Y-48548D01*
X40710Y-48639D01*
X41000Y-48929D01*
X41290Y-48639D01*
X41290Y-48781D01*
X41071Y-49000D01*
X41361Y-49290D01*
X41452Y-49267D01*
X41496Y-49140D01*
X41548Y-49267D01*
X41639Y-49290D01*
X41929Y-49000D01*
X41929Y-49142D01*
X41710Y-49361D01*
X41733Y-49452D01*
X41926Y-49519D01*
X42130Y-49508D01*
X42267Y-49452D01*
X42290Y-49361D01*
X42290Y-51476D01*
X42226Y-51476D01*
X41676Y-51476D01*
X41584Y-51514D01*
X41514Y-51584D01*
X41499Y-51617D01*
X41486Y-51584D01*
X41416Y-51514D01*
X41325Y-51476D01*
X41290Y-51476D01*
X41290Y-49361D01*
X41000Y-49071D01*
X40929Y-49142D01*
X40929Y-49000D01*
X40639Y-48710D01*
X40548Y-48733D01*
X40503Y-48859D01*
X40452Y-48733D01*
X40361Y-48710D01*
X40290Y-48781D01*
X40290Y-48639D01*
X40267Y-48548D01*
X40074Y-48481D01*
X39870Y-48492D01*
X39733Y-48548D01*
X39710Y-48639D01*
X40000Y-48929D01*
X40290Y-48639D01*
X40290Y-48781D01*
X40071Y-49000D01*
X40361Y-49290D01*
X40452Y-49267D01*
X40496Y-49140D01*
X40548Y-49267D01*
X40639Y-49290D01*
X40929Y-49000D01*
X40929Y-49142D01*
X40710Y-49361D01*
X40733Y-49452D01*
X40926Y-49519D01*
X41130Y-49508D01*
X41267Y-49452D01*
X41290Y-49361D01*
X41290Y-51476D01*
X41226Y-51476D01*
X40676Y-51476D01*
X40584Y-51514D01*
X40514Y-51584D01*
X40499Y-51617D01*
X40486Y-51584D01*
X40416Y-51514D01*
X40325Y-51476D01*
X40290Y-51476D01*
X40290Y-49361D01*
X40000Y-49071D01*
X39929Y-49142D01*
X39929Y-49000D01*
X39639Y-48710D01*
X39548Y-48733D01*
X39503Y-48859D01*
X39452Y-48733D01*
X39361Y-48710D01*
X39290Y-48781D01*
X39290Y-48639D01*
X39267Y-48548D01*
X39074Y-48481D01*
X38870Y-48492D01*
X38733Y-48548D01*
X38710Y-48639D01*
X39000Y-48929D01*
X39290Y-48639D01*
X39290Y-48781D01*
X39071Y-49000D01*
X39361Y-49290D01*
X39452Y-49267D01*
X39496Y-49140D01*
X39548Y-49267D01*
X39639Y-49290D01*
X39929Y-49000D01*
X39929Y-49142D01*
X39710Y-49361D01*
X39733Y-49452D01*
X39926Y-49519D01*
X40130Y-49508D01*
X40267Y-49452D01*
X40290Y-49361D01*
X40290Y-51476D01*
X40226Y-51476D01*
X39676Y-51476D01*
X39584Y-51514D01*
X39514Y-51584D01*
X39499Y-51617D01*
X39486Y-51584D01*
X39416Y-51514D01*
X39325Y-51476D01*
X39290Y-51476D01*
X39290Y-49361D01*
X39000Y-49071D01*
X38929Y-49142D01*
X38929Y-49000D01*
X38639Y-48710D01*
X38548Y-48733D01*
X38481Y-48926D01*
X38492Y-49130D01*
X38548Y-49267D01*
X38639Y-49290D01*
X38929Y-49000D01*
X38929Y-49142D01*
X38710Y-49361D01*
X38733Y-49452D01*
X38926Y-49519D01*
X39130Y-49508D01*
X39267Y-49452D01*
X39290Y-49361D01*
X39290Y-51476D01*
X39226Y-51476D01*
X38676Y-51476D01*
X38584Y-51514D01*
X38514Y-51584D01*
X38476Y-51675D01*
X38476Y-51774D01*
X38476Y-52324D01*
X38514Y-52416D01*
X38584Y-52486D01*
X38675Y-52524D01*
X38710Y-52524D01*
X38710Y-53052D01*
X38703Y-53055D01*
X38555Y-53202D01*
X38475Y-53395D01*
X38475Y-53604D01*
X38555Y-53797D01*
X38702Y-53945D01*
X38895Y-54025D01*
X39104Y-54025D01*
X39297Y-53945D01*
X39445Y-53798D01*
X39500Y-53664D01*
X39555Y-53797D01*
X39702Y-53945D01*
X39895Y-54025D01*
X40104Y-54025D01*
X40297Y-53945D01*
X40445Y-53798D01*
X40500Y-53664D01*
X40555Y-53797D01*
X40702Y-53945D01*
X40895Y-54025D01*
X41104Y-54025D01*
X41297Y-53945D01*
X41445Y-53798D01*
X41500Y-53664D01*
X41555Y-53797D01*
X41702Y-53945D01*
X41895Y-54025D01*
X42104Y-54025D01*
X42297Y-53945D01*
X42445Y-53798D01*
X42500Y-53664D01*
X42555Y-53797D01*
X42702Y-53945D01*
X42895Y-54025D01*
X43104Y-54025D01*
X43297Y-53945D01*
X43445Y-53798D01*
X43500Y-53664D01*
X43555Y-53797D01*
X43702Y-53945D01*
X43895Y-54025D01*
X44104Y-54025D01*
X44297Y-53945D01*
X44445Y-53798D01*
X44500Y-53664D01*
X44555Y-53797D01*
X44702Y-53945D01*
X44895Y-54025D01*
X45104Y-54025D01*
X45297Y-53945D01*
X45445Y-53798D01*
X45500Y-53664D01*
X45555Y-53797D01*
X45702Y-53945D01*
X45895Y-54025D01*
X46104Y-54025D01*
X46297Y-53945D01*
X46445Y-53798D01*
X46500Y-53664D01*
X46555Y-53797D01*
X46702Y-53945D01*
X46895Y-54025D01*
X47104Y-54025D01*
X47297Y-53945D01*
X47445Y-53798D01*
X47500Y-53664D01*
X47555Y-53797D01*
X47702Y-53945D01*
X47895Y-54025D01*
X48104Y-54025D01*
X48297Y-53945D01*
X48445Y-53798D01*
X48525Y-53605D01*
X48525Y-56396D01*
X48445Y-56203D01*
X48298Y-56055D01*
X48105Y-55975D01*
X47896Y-55975D01*
X47703Y-56055D01*
X47555Y-56202D01*
X47499Y-56335D01*
X47445Y-56203D01*
X47298Y-56055D01*
X47105Y-55975D01*
X46896Y-55975D01*
X46703Y-56055D01*
X46555Y-56202D01*
X46499Y-56335D01*
X46445Y-56203D01*
X46298Y-56055D01*
X46105Y-55975D01*
X45896Y-55975D01*
X45703Y-56055D01*
X45555Y-56202D01*
X45499Y-56335D01*
X45445Y-56203D01*
X45298Y-56055D01*
X45105Y-55975D01*
X44896Y-55975D01*
X44703Y-56055D01*
X44555Y-56202D01*
X44499Y-56335D01*
X44445Y-56203D01*
X44298Y-56055D01*
X44105Y-55975D01*
X43896Y-55975D01*
X43703Y-56055D01*
X43555Y-56202D01*
X43499Y-56335D01*
X43445Y-56203D01*
X43298Y-56055D01*
X43105Y-55975D01*
X42896Y-55975D01*
X42703Y-56055D01*
X42555Y-56202D01*
X42499Y-56335D01*
X42445Y-56203D01*
X42298Y-56055D01*
X42105Y-55975D01*
X41896Y-55975D01*
X41703Y-56055D01*
X41555Y-56202D01*
X41499Y-56335D01*
X41445Y-56203D01*
X41298Y-56055D01*
X41105Y-55975D01*
X40896Y-55975D01*
X40703Y-56055D01*
X40555Y-56202D01*
X40499Y-56335D01*
X40445Y-56203D01*
X40298Y-56055D01*
X40105Y-55975D01*
X39896Y-55975D01*
X39703Y-56055D01*
X39555Y-56202D01*
X39499Y-56335D01*
X39445Y-56203D01*
X39298Y-56055D01*
X39105Y-55975D01*
X38896Y-55975D01*
X38703Y-56055D01*
X38555Y-56202D01*
X38475Y-56395D01*
X38475Y-56604D01*
X38555Y-56797D01*
X38702Y-56945D01*
X38710Y-56948D01*
X38710Y-57451D01*
X38651Y-57451D01*
X38559Y-57489D01*
X38489Y-57559D01*
X38451Y-57650D01*
X38451Y-57749D01*
X38451Y-58349D01*
X38489Y-58441D01*
X38559Y-58511D01*
X38650Y-58549D01*
X38749Y-58549D01*
X39349Y-58549D01*
X39441Y-58511D01*
X39511Y-58441D01*
X39549Y-58350D01*
X39549Y-58325D01*
X39689Y-58465D01*
X39891Y-58549D01*
X40109Y-58549D01*
X40311Y-58465D01*
X40465Y-58311D01*
X40500Y-58226D01*
X40535Y-58311D01*
X40689Y-58465D01*
X40891Y-58549D01*
X41109Y-58549D01*
X41311Y-58465D01*
X41465Y-58311D01*
X41500Y-58226D01*
X41535Y-58311D01*
X41689Y-58465D01*
X41891Y-58549D01*
X42109Y-58549D01*
X42311Y-58465D01*
X42465Y-58311D01*
X42500Y-58226D01*
X42535Y-58311D01*
X42689Y-58465D01*
X42891Y-58549D01*
X43109Y-58549D01*
X43311Y-58465D01*
X43465Y-58311D01*
X43500Y-58226D01*
X43535Y-58311D01*
X43689Y-58465D01*
X43891Y-58549D01*
X44109Y-58549D01*
X44311Y-58465D01*
X44465Y-58311D01*
X44500Y-58226D01*
X44535Y-58311D01*
X44689Y-58465D01*
X44891Y-58549D01*
X45109Y-58549D01*
X45311Y-58465D01*
X45465Y-58311D01*
X45500Y-58226D01*
X45535Y-58311D01*
X45689Y-58465D01*
X45891Y-58549D01*
X46109Y-58549D01*
X46311Y-58465D01*
X46465Y-58311D01*
X46500Y-58226D01*
X46535Y-58311D01*
X46689Y-58465D01*
X46891Y-58549D01*
X47109Y-58549D01*
X47311Y-58465D01*
X47465Y-58311D01*
X47500Y-58226D01*
X47535Y-58311D01*
X47689Y-58465D01*
X47891Y-58549D01*
X48109Y-58549D01*
X48311Y-58465D01*
X48465Y-58311D01*
X48549Y-58109D01*
X48549Y-60950D01*
X48543Y-60950D01*
X48543Y-60079D01*
X48532Y-59866D01*
X48472Y-59719D01*
X48378Y-59692D01*
X48308Y-59762D01*
X48308Y-59622D01*
X48281Y-59528D01*
X48079Y-59457D01*
X47866Y-59468D01*
X47719Y-59528D01*
X47692Y-59622D01*
X48000Y-59929D01*
X48308Y-59622D01*
X48308Y-59762D01*
X48071Y-60000D01*
X48378Y-60308D01*
X48472Y-60281D01*
X48543Y-60079D01*
X48543Y-60950D01*
X48308Y-60950D01*
X48308Y-60378D01*
X48000Y-60071D01*
X47929Y-60141D01*
X47929Y-60000D01*
X47622Y-59692D01*
X47528Y-59719D01*
X47502Y-59792D01*
X47472Y-59719D01*
X47378Y-59692D01*
X47308Y-59762D01*
X47308Y-59622D01*
X47281Y-59528D01*
X47079Y-59457D01*
X46866Y-59468D01*
X46719Y-59528D01*
X46692Y-59622D01*
X47000Y-59929D01*
X47308Y-59622D01*
X47308Y-59762D01*
X47071Y-60000D01*
X47378Y-60308D01*
X47472Y-60281D01*
X47497Y-60207D01*
X47528Y-60281D01*
X47622Y-60308D01*
X47929Y-60000D01*
X47929Y-60141D01*
X47692Y-60378D01*
X47719Y-60472D01*
X47921Y-60543D01*
X48134Y-60532D01*
X48281Y-60472D01*
X48308Y-60378D01*
X48308Y-60950D01*
X47308Y-60950D01*
X47308Y-60378D01*
X47000Y-60071D01*
X46929Y-60141D01*
X46929Y-60000D01*
X46622Y-59692D01*
X46528Y-59719D01*
X46504Y-59784D01*
X46465Y-59689D01*
X46311Y-59535D01*
X46109Y-59451D01*
X45891Y-59451D01*
X45689Y-59535D01*
X45549Y-59675D01*
X45549Y-59651D01*
X45511Y-59559D01*
X45441Y-59489D01*
X45350Y-59451D01*
X45251Y-59451D01*
X44651Y-59451D01*
X44559Y-59489D01*
X44489Y-59559D01*
X44451Y-59650D01*
X44451Y-59749D01*
X44451Y-60349D01*
X44489Y-60441D01*
X44559Y-60511D01*
X44650Y-60549D01*
X44749Y-60549D01*
X45349Y-60549D01*
X45441Y-60511D01*
X45511Y-60441D01*
X45549Y-60350D01*
X45549Y-60325D01*
X45689Y-60465D01*
X45891Y-60549D01*
X46109Y-60549D01*
X46311Y-60465D01*
X46465Y-60311D01*
X46502Y-60219D01*
X46528Y-60281D01*
X46622Y-60308D01*
X46929Y-60000D01*
X46929Y-60141D01*
X46692Y-60378D01*
X46719Y-60472D01*
X46921Y-60543D01*
X47134Y-60532D01*
X47281Y-60472D01*
X47308Y-60378D01*
X47308Y-60950D01*
X42543Y-60950D01*
X42543Y-60079D01*
X42532Y-59866D01*
X42472Y-59719D01*
X42378Y-59692D01*
X42308Y-59762D01*
X42308Y-59622D01*
X42281Y-59528D01*
X42079Y-59457D01*
X41866Y-59468D01*
X41719Y-59528D01*
X41692Y-59622D01*
X42000Y-59929D01*
X42308Y-59622D01*
X42308Y-59762D01*
X42071Y-60000D01*
X42378Y-60308D01*
X42472Y-60281D01*
X42543Y-60079D01*
X42543Y-60950D01*
X42308Y-60950D01*
X42308Y-60378D01*
X42000Y-60071D01*
X41929Y-60141D01*
X41929Y-60000D01*
X41622Y-59692D01*
X41528Y-59719D01*
X41502Y-59792D01*
X41472Y-59719D01*
X41378Y-59692D01*
X41308Y-59762D01*
X41308Y-59622D01*
X41281Y-59528D01*
X41079Y-59457D01*
X40866Y-59468D01*
X40719Y-59528D01*
X40692Y-59622D01*
X41000Y-59929D01*
X41308Y-59622D01*
X41308Y-59762D01*
X41071Y-60000D01*
X41378Y-60308D01*
X41472Y-60281D01*
X41497Y-60207D01*
X41528Y-60281D01*
X41622Y-60308D01*
X41929Y-60000D01*
X41929Y-60141D01*
X41692Y-60378D01*
X41719Y-60472D01*
X41921Y-60543D01*
X42134Y-60532D01*
X42281Y-60472D01*
X42308Y-60378D01*
X42308Y-60950D01*
X41308Y-60950D01*
X41308Y-60378D01*
X41000Y-60071D01*
X40692Y-60378D01*
X40719Y-60472D01*
X40921Y-60543D01*
X41134Y-60532D01*
X41281Y-60472D01*
X41308Y-60378D01*
X41308Y-60950D01*
X37550Y-60950D01*
X37550Y-44550D01*
X59450Y-44550D01*
X59450Y-60950D01*
M02*
