M48
INCH,TZ
T1C0.025
T2C0.032
T3C0.039
%
G90
G05
T1
X5.250Y-5.550
X5.400Y-5.550
T2
X3.900Y-4.900
X3.900Y-5.200
X3.900Y-5.350
X3.900Y-5.650
X4.000Y-4.900
X4.000Y-5.200
X4.000Y-5.350
X4.000Y-5.650
X4.100Y-4.900
X4.100Y-5.200
X4.100Y-5.350
X4.100Y-5.650
X4.200Y-4.900
X4.200Y-5.200
X4.200Y-5.350
X4.200Y-5.650
X4.300Y-4.900
X4.300Y-5.200
X4.300Y-5.350
X4.300Y-5.650
X4.400Y-4.900
X4.400Y-5.200
X4.400Y-5.350
X4.400Y-5.650
X4.500Y-4.900
X4.500Y-5.200
X4.500Y-5.350
X4.500Y-5.650
X4.600Y-4.900
X4.600Y-5.200
X4.600Y-5.350
X4.600Y-5.650
X4.700Y-4.900
X4.700Y-5.200
X4.700Y-5.350
X4.700Y-5.650
X4.800Y-4.900
X4.800Y-5.200
X4.800Y-5.350
X4.800Y-5.650
X5.000Y-4.850
X5.000Y-5.150
X5.100Y-4.850
X5.100Y-5.150
X5.200Y-4.850
X5.200Y-5.150
X5.300Y-4.850
X5.300Y-5.150
X5.400Y-4.850
X5.400Y-5.150
X5.600Y-4.800
X5.600Y-4.900
X5.600Y-5.000
X5.600Y-5.100
X5.600Y-5.200
X5.800Y-4.800
X5.800Y-4.900
X5.800Y-5.000
X5.800Y-5.100
X5.800Y-5.200
T3
X3.900Y-4.550
X3.900Y-4.650
X3.900Y-5.800
X3.900Y-6.000
X4.000Y-4.550
X4.000Y-4.650
X4.000Y-5.800
X4.000Y-6.000
X4.100Y-4.550
X4.100Y-4.650
X4.100Y-5.800
X4.100Y-6.000
X4.200Y-4.550
X4.200Y-4.650
X4.200Y-5.800
X4.200Y-6.000
X4.300Y-4.550
X4.300Y-4.650
X4.300Y-5.800
X4.400Y-4.550
X4.400Y-4.650
X4.400Y-5.800
X4.500Y-4.550
X4.500Y-4.650
X4.500Y-5.800
X4.500Y-6.000
X4.600Y-4.550
X4.600Y-4.650
X4.600Y-5.800
X4.600Y-6.000
X4.700Y-4.550
X4.700Y-4.650
X4.700Y-5.800
X4.700Y-6.000
X4.800Y-4.550
X4.800Y-4.650
X4.800Y-5.800
X4.800Y-6.000
X4.900Y-4.550
X4.900Y-4.650
X4.950Y-5.800
X5.000Y-4.550
X5.000Y-4.650
X5.000Y-5.350
X5.000Y-5.650
X5.050Y-5.800
X5.100Y-4.550
X5.100Y-4.650
X5.100Y-5.350
X5.100Y-5.650
X5.150Y-5.800
X5.200Y-4.550
X5.200Y-4.650
X5.200Y-5.350
X5.200Y-5.650
X5.250Y-5.800
X5.300Y-4.550
X5.300Y-4.650
X5.300Y-5.350
X5.300Y-5.650
X5.350Y-5.800
X5.400Y-4.550
X5.400Y-4.650
X5.400Y-5.350
X5.400Y-5.650
X5.450Y-5.800
X5.500Y-4.550
X5.500Y-4.650
X5.500Y-5.350
X5.500Y-5.650
X5.550Y-5.800
X5.600Y-4.550
X5.600Y-4.650
X5.600Y-5.350
X5.600Y-5.650
X5.650Y-5.800
X5.700Y-4.550
X5.700Y-4.650
X5.800Y-4.550
X5.800Y-4.650
T0
M30
